<?xml version="1.0" encoding="utf-8"?>
<!DOCTYPE svg PUBLIC "-//W3C//DTD SVG 1.1//EN" "http://www.w3.org/Graphics/SVG/1.1/DTD/svg11.dtd" [ <!ENTITY ns_flows "http://ns.adobe.com/Flows/1.0/"> ]>
<svg version="1.1" xmlns="http://www.w3.org/2000/svg" xmlns:xlink="http://www.w3.org/1999/xlink" xmlns:a="http://ns.adobe.com/AdobeSVGViewerExtensions/3.0/" x="0px" y="0px" width="1366px" height="768px" viewBox="0 0 1366 768" overflow="visible" enable-background="new 0 0 1366 768" xml:space="preserve">
<defs></defs>
<rect fill="none" width="1366" height="768"/>
<rect x="5" y="680" fill="#FFFFFF" width="16" height="80"/>
<rect x="25" y="680" fill="#FFFFFF" width="16" height="80"/>
<rect x="45" y="680" fill="#FFFFFF" width="16" height="80"/>
<rect x="65" y="680" fill="#FFFFFF" width="16" height="80"/>
<rect x="85" y="680" fill="#FFFFFF" width="16" height="80"/>
<rect x="105" y="680" fill="#FFFFFF" width="16" height="80"/>
<rect x="125" y="680" fill="#FFFFFF" width="16" height="80"/>
<rect x="145" y="680" fill="#FFFFFF" width="16" height="80"/>
<rect x="165" y="680" fill="#FFFFFF" width="16" height="80"/>
<rect x="185" y="680" fill="#FFFFFF" width="16" height="80"/>
<rect x="205" y="680" fill="#FFFFFF" width="16" height="80"/>
<rect x="225" y="680" fill="#FFFFFF" width="16" height="80"/>
<rect x="245" y="680" fill="#FFFFFF" width="16" height="80"/>
<rect x="265" y="680" fill="#FFFFFF" width="16" height="80"/>
<rect x="285" y="680" fill="#FFFFFF" width="16" height="80"/>
<rect x="305" y="680" fill="#FFFFFF" width="16" height="80"/>
<rect x="325" y="680" fill="#FFFFFF" width="16" height="80"/>
<rect x="345" y="680" fill="#FFFFFF" width="16" height="80"/>
<rect x="365" y="680" fill="#FFFFFF" width="16" height="80"/>
<rect x="385" y="680" fill="#FFFFFF" width="16" height="80"/>
<rect x="405" y="680" fill="#FFFFFF" width="16" height="80"/>
<rect x="425" y="680" fill="#FFFFFF" width="16" height="80"/>
<rect x="445" y="680" fill="#FFFFFF" width="16" height="80"/>
<rect x="465" y="680" fill="#FFFFFF" width="16" height="80"/>
<rect x="485" y="680" fill="#FFFFFF" width="16" height="80"/>
<rect x="505" y="680" fill="#FFFFFF" width="16" height="80"/>
<rect x="525" y="680" fill="#FFFFFF" width="16" height="80"/>
<rect x="545" y="680" fill="#FFFFFF" width="16" height="80"/>
<rect x="565" y="680" fill="#FFFFFF" width="16" height="80"/>
<rect x="585" y="680" fill="#FFFFFF" width="16" height="80"/>
<rect x="605" y="680" fill="#FFFFFF" width="16" height="80"/>
<rect x="625" y="680" fill="#FFFFFF" width="16" height="80"/>
<rect x="645" y="680" fill="#FFFFFF" width="16" height="80"/>
<rect x="665" y="680" fill="#FFFFFF" width="16" height="80"/>
<rect x="685" y="680" fill="#FFFFFF" width="16" height="80"/>
<rect x="705" y="680" fill="#FFFFFF" width="16" height="80"/>
<rect x="725" y="680" fill="#FFFFFF" width="16" height="80"/>
<rect x="745" y="680" fill="#FFFFFF" width="16" height="80"/>
<rect x="765" y="680" fill="#FFFFFF" width="16" height="80"/>
<rect x="785" y="680" fill="#FFFFFF" width="16" height="80"/>
<rect x="805" y="680" fill="#FFFFFF" width="16" height="80"/>
<rect x="825" y="680" fill="#FFFFFF" width="16" height="80"/>
<rect x="845" y="680" fill="#FFFFFF" width="16" height="80"/>
<rect x="865" y="680" fill="#FFFFFF" width="16" height="80"/>
<rect x="885" y="680" fill="#FFFFFF" width="16" height="80"/>
<rect x="905" y="680" fill="#FFFFFF" width="16" height="80"/>
<rect x="925" y="680" fill="#FFFFFF" width="16" height="80"/>
<rect x="945" y="680" fill="#FFFFFF" width="16" height="80"/>
<rect x="965" y="680" fill="#FFFFFF" width="16" height="80"/>
<rect x="985" y="680" fill="#FFFFFF" width="16" height="80"/>
<rect x="1005" y="680" fill="#FFFFFF" width="16" height="80"/>
<rect x="1025" y="680" fill="#FFFFFF" width="16" height="80"/>
<rect x="1045" y="680" fill="#FFFFFF" width="16" height="80"/>
<rect x="1065" y="680" fill="#FFFFFF" width="16" height="80"/>
<rect x="1085" y="680" fill="#FFFFFF" width="16" height="80"/>
<rect x="1105" y="680" fill="#FFFFFF" width="16" height="80"/>
<rect x="1125" y="680" fill="#FFFFFF" width="16" height="80"/>
<rect x="1145" y="680" fill="#FFFFFF" width="16" height="80"/>
<rect x="1165" y="680" fill="#FFFFFF" width="16" height="80"/>
<rect x="1185" y="680" fill="#FFFFFF" width="16" height="80"/>
<rect x="1205" y="680" fill="#FFFFFF" width="16" height="80"/>
<rect x="1225" y="680" fill="#FFFFFF" width="16" height="80"/>
<rect x="1245" y="680" fill="#FFFFFF" width="16" height="80"/>
<rect x="1265" y="680" fill="#FFFFFF" width="16" height="80"/>
<rect x="1285" y="680" fill="#FFFFFF" width="16" height="80"/>
<rect x="1305" y="680" fill="#FFFFFF" width="16" height="80"/>
<rect x="1325" y="680" fill="#FFFFFF" width="16" height="80"/>
<rect x="1345" y="680" fill="#FFFFFF" width="16" height="80"/>
<rect x="5" y="596" fill="#FFFFFF" width="16" height="80"/>
<rect x="25" y="596" fill="#FFFFFF" width="16" height="80"/>
<rect x="45" y="596" fill="#FFFFFF" width="16" height="80"/>
<rect x="65" y="596" fill="#FFFFFF" width="16" height="80"/>
<rect x="85" y="596" fill="#FFFFFF" width="16" height="80"/>
<rect x="105" y="596" fill="#FFFFFF" width="16" height="80"/>
<rect x="125" y="596" fill="#FFFFFF" width="16" height="80"/>
<rect x="145" y="596" fill="#FFFFFF" width="16" height="80"/>
<rect x="165" y="596" fill="#FFFFFF" width="16" height="80"/>
<rect x="185" y="596" fill="#FFFFFF" width="16" height="80"/>
<rect x="205" y="596" fill="#FFFFFF" width="16" height="80"/>
<rect x="225" y="596" fill="#FFFFFF" width="16" height="80"/>
<rect x="245" y="596" fill="#FFFFFF" width="16" height="80"/>
<rect x="265" y="596" fill="#FFFFFF" width="16" height="80"/>
<rect x="285" y="596" fill="#FFFFFF" width="16" height="80"/>
<rect x="305" y="596" fill="#FFFFFF" width="16" height="80"/>
<rect x="325" y="596" fill="#FFFFFF" width="16" height="80"/>
<rect x="345" y="596" fill="#FFFFFF" width="16" height="80"/>
<rect x="365" y="596" fill="#FFFFFF" width="16" height="80"/>
<rect x="385" y="596" fill="#FFFFFF" width="16" height="80"/>
<rect x="405" y="596" fill="#FFFFFF" width="16" height="80"/>
<rect x="425" y="596" fill="#FFFFFF" width="16" height="80"/>
<rect x="445" y="596" fill="#FFFFFF" width="16" height="80"/>
<rect x="465" y="596" fill="#FFFFFF" width="16" height="80"/>
<rect x="485" y="596" fill="#FFFFFF" width="16" height="80"/>
<rect x="505" y="596" fill="#FFFFFF" width="16" height="80"/>
<rect x="525" y="596" fill="#FFFFFF" width="16" height="80"/>
<rect x="545" y="596" fill="#FFFFFF" width="16" height="80"/>
<rect x="565" y="596" fill="#FFFFFF" width="16" height="80"/>
<rect x="585" y="596" fill="#FFFFFF" width="16" height="80"/>
<rect x="605" y="596" fill="#FFFFFF" width="16" height="80"/>
<rect x="625" y="596" fill="#FFFFFF" width="16" height="80"/>
<rect x="645" y="596" fill="#FFFFFF" width="16" height="80"/>
<rect x="665" y="596" fill="#FFFFFF" width="16" height="80"/>
<rect x="685" y="596" fill="#FFFFFF" width="16" height="80"/>
<rect x="705" y="596" fill="#FFFFFF" width="16" height="80"/>
<rect x="725" y="596" fill="#FFFFFF" width="16" height="80"/>
<rect x="745" y="596" fill="#FFFFFF" width="16" height="80"/>
<rect x="765" y="596" fill="#FFFFFF" width="16" height="80"/>
<rect x="785" y="596" fill="#FFFFFF" width="16" height="80"/>
<rect x="805" y="596" fill="#FFFFFF" width="16" height="80"/>
<rect x="825" y="596" fill="#FFFFFF" width="16" height="80"/>
<rect x="845" y="596" fill="#FFFFFF" width="16" height="80"/>
<rect x="865" y="596" fill="#FFFFFF" width="16" height="80"/>
<rect x="885" y="596" fill="#FFFFFF" width="16" height="80"/>
<rect x="905" y="596" fill="#FFFFFF" width="16" height="80"/>
<rect x="925" y="596" fill="#FFFFFF" width="16" height="80"/>
<rect x="945" y="596" fill="#FFFFFF" width="16" height="80"/>
<rect x="965" y="596" fill="#FFFFFF" width="16" height="80"/>
<rect x="985" y="596" fill="#FFFFFF" width="16" height="80"/>
<rect x="1005" y="596" fill="#FFFFFF" width="16" height="80"/>
<rect x="1025" y="596" fill="#FFFFFF" width="16" height="80"/>
<rect x="1045" y="596" fill="#FFFFFF" width="16" height="80"/>
<rect x="1065" y="596" fill="#FFFFFF" width="16" height="80"/>
<rect x="1085" y="596" fill="#FFFFFF" width="16" height="80"/>
<rect x="1105" y="596" fill="#FFFFFF" width="16" height="80"/>
<rect x="1125" y="596" fill="#FFFFFF" width="16" height="80"/>
<rect x="1145" y="596" fill="#FFFFFF" width="16" height="80"/>
<rect x="1165" y="596" fill="#FFFFFF" width="16" height="80"/>
<rect x="1185" y="596" fill="#FFFFFF" width="16" height="80"/>
<rect x="1205" y="596" fill="#FFFFFF" width="16" height="80"/>
<rect x="1225" y="596" fill="#FFFFFF" width="16" height="80"/>
<rect x="1245" y="596" fill="#FFFFFF" width="16" height="80"/>
<rect x="1265" y="596" fill="#FFFFFF" width="16" height="80"/>
<rect x="1285" y="596" fill="#FFFFFF" width="16" height="80"/>
<rect x="1305" y="596" fill="#FFFFFF" width="16" height="80"/>
<rect x="1325" y="596" fill="#FFFFFF" width="16" height="80"/>
<rect x="1345" y="596" fill="#FFFFFF" width="16" height="80"/>
<rect x="5" y="512" fill="#FFFFFF" width="16" height="80"/>
<rect x="25" y="512" fill="#FFFFFF" width="16" height="80"/>
<rect x="45" y="512" fill="#FFFFFF" width="16" height="80"/>
<rect x="65" y="512" fill="#FFFFFF" width="16" height="80"/>
<rect x="85" y="512" fill="#FFFFFF" width="16" height="80"/>
<rect x="105" y="512" fill="#FFFFFF" width="16" height="80"/>
<rect x="125" y="512" fill="#FFFFFF" width="16" height="80"/>
<rect x="145" y="512" fill="#FFFFFF" width="16" height="80"/>
<rect x="165" y="512" fill="#FFFFFF" width="16" height="80"/>
<rect x="185" y="512" fill="#FFFFFF" width="16" height="80"/>
<rect x="205" y="512" fill="#FFFFFF" width="16" height="80"/>
<rect x="225" y="512" fill="#FFFFFF" width="16" height="80"/>
<rect x="245" y="512" fill="#FFFFFF" width="16" height="80"/>
<rect x="265" y="512" fill="#FFFFFF" width="16" height="80"/>
<rect x="285" y="512" fill="#FFFFFF" width="16" height="80"/>
<rect x="305" y="512" fill="#FFFFFF" width="16" height="80"/>
<rect x="325" y="512" fill="#FFFFFF" width="16" height="80"/>
<rect x="345" y="512" fill="#FFFFFF" width="16" height="80"/>
<rect x="365" y="512" fill="#FFFFFF" width="16" height="80"/>
<rect x="385" y="512" fill="#FFFFFF" width="16" height="80"/>
<rect x="405" y="512" fill="#FFFFFF" width="16" height="80"/>
<rect x="425" y="512" fill="#FFFFFF" width="16" height="80"/>
<rect x="445" y="512" fill="#FFFFFF" width="16" height="80"/>
<rect x="465" y="512" fill="#FFFFFF" width="16" height="80"/>
<rect x="485" y="512" fill="#FFFFFF" width="16" height="80"/>
<rect x="505" y="512" fill="#FFFFFF" width="16" height="80"/>
<rect x="525" y="512" fill="#FFFFFF" width="16" height="80"/>
<rect x="545" y="512" fill="#FFFFFF" width="16" height="80"/>
<rect x="565" y="512" fill="#FFFFFF" width="16" height="80"/>
<rect x="585" y="512" fill="#FFFFFF" width="16" height="80"/>
<rect x="605" y="512" fill="#FFFFFF" width="16" height="80"/>
<rect x="625" y="512" fill="#FFFFFF" width="16" height="80"/>
<rect x="645" y="512" fill="#FFFFFF" width="16" height="80"/>
<rect x="665" y="512" fill="#FFFFFF" width="16" height="80"/>
<rect x="685" y="512" fill="#FFFFFF" width="16" height="80"/>
<rect x="705" y="512" fill="#FFFFFF" width="16" height="80"/>
<rect x="725" y="512" fill="#FFFFFF" width="16" height="80"/>
<rect x="745" y="512" fill="#FFFFFF" width="16" height="80"/>
<rect x="765" y="512" fill="#FFFFFF" width="16" height="80"/>
<rect x="785" y="512" fill="#FFFFFF" width="16" height="80"/>
<rect x="805" y="512" fill="#FFFFFF" width="16" height="80"/>
<rect x="825" y="512" fill="#FFFFFF" width="16" height="80"/>
<rect x="845" y="512" fill="#FFFFFF" width="16" height="80"/>
<rect x="865" y="512" fill="#FFFFFF" width="16" height="80"/>
<rect x="885" y="512" fill="#FFFFFF" width="16" height="80"/>
<rect x="905" y="512" fill="#FFFFFF" width="16" height="80"/>
<rect x="925" y="512" fill="#FFFFFF" width="16" height="80"/>
<rect x="945" y="512" fill="#FFFFFF" width="16" height="80"/>
<rect x="965" y="512" fill="#FFFFFF" width="16" height="80"/>
<rect x="985" y="512" fill="#FFFFFF" width="16" height="80"/>
<rect x="1005" y="512" fill="#FFFFFF" width="16" height="80"/>
<rect x="1025" y="512" fill="#FFFFFF" width="16" height="80"/>
<rect x="1045" y="512" fill="#FFFFFF" width="16" height="80"/>
<rect x="1065" y="512" fill="#FFFFFF" width="16" height="80"/>
<rect x="1085" y="512" fill="#FFFFFF" width="16" height="80"/>
<rect x="1105" y="512" fill="#FFFFFF" width="16" height="80"/>
<rect x="1125" y="512" fill="#FFFFFF" width="16" height="80"/>
<rect x="1145" y="512" fill="#FFFFFF" width="16" height="80"/>
<rect x="1165" y="512" fill="#FFFFFF" width="16" height="80"/>
<rect x="1185" y="512" fill="#FFFFFF" width="16" height="80"/>
<rect x="1205" y="512" fill="#FFFFFF" width="16" height="80"/>
<rect x="1225" y="512" fill="#FFFFFF" width="16" height="80"/>
<rect x="1245" y="512" fill="#FFFFFF" width="16" height="80"/>
<rect x="1265" y="512" fill="#FFFFFF" width="16" height="80"/>
<rect x="1285" y="512" fill="#FFFFFF" width="16" height="80"/>
<rect x="1305" y="512" fill="#FFFFFF" width="16" height="80"/>
<rect x="1325" y="512" fill="#FFFFFF" width="16" height="80"/>
<rect x="1345" y="512" fill="#FFFFFF" width="16" height="80"/>
<rect x="5" y="428" fill="#FFFFFF" width="16" height="80"/>
<rect x="25" y="428" fill="#FFFFFF" width="16" height="80"/>
<rect x="45" y="428" fill="#FFFFFF" width="16" height="80"/>
<rect x="65" y="428" fill="#FFFFFF" width="16" height="80"/>
<rect x="85" y="428" fill="#FFFFFF" width="16" height="80"/>
<rect x="105" y="428" fill="#FFFFFF" width="16" height="80"/>
<rect x="125" y="428" fill="#FFFFFF" width="16" height="80"/>
<rect x="145" y="428" fill="#FFFFFF" width="16" height="80"/>
<rect x="165" y="428" fill="#FFFFFF" width="16" height="80"/>
<rect x="185" y="428" fill="#FFFFFF" width="16" height="80"/>
<rect x="205" y="428" fill="#FFFFFF" width="16" height="80"/>
<rect x="225" y="428" fill="#FFFFFF" width="16" height="80"/>
<rect x="245" y="428" fill="#FFFFFF" width="16" height="80"/>
<rect x="265" y="428" fill="#FFFFFF" width="16" height="80"/>
<rect x="285" y="428" fill="#FFFFFF" width="16" height="80"/>
<rect x="305" y="428" fill="#FFFFFF" width="16" height="80"/>
<rect x="325" y="428" fill="#FFFFFF" width="16" height="80"/>
<rect x="345" y="428" fill="#FFFFFF" width="16" height="80"/>
<rect x="365" y="428" fill="#FFFFFF" width="16" height="80"/>
<rect x="385" y="428" fill="#FFFFFF" width="16" height="80"/>
<rect x="405" y="428" fill="#FFFFFF" width="16" height="80"/>
<rect x="425" y="428" fill="#FFFFFF" width="16" height="80"/>
<rect x="445" y="428" fill="#FFFFFF" width="16" height="80"/>
<rect x="465" y="428" fill="#FFFFFF" width="16" height="80"/>
<rect x="485" y="428" fill="#FFFFFF" width="16" height="80"/>
<rect x="505" y="428" fill="#FFFFFF" width="16" height="80"/>
<rect x="525" y="428" fill="#FFFFFF" width="16" height="80"/>
<rect x="545" y="428" fill="#FFFFFF" width="16" height="80"/>
<rect x="565" y="428" fill="#FFFFFF" width="16" height="80"/>
<rect x="585" y="428" fill="#FFFFFF" width="16" height="80"/>
<rect x="605" y="428" fill="#FFFFFF" width="16" height="80"/>
<rect x="625" y="428" fill="#FFFFFF" width="16" height="80"/>
<rect x="645" y="428" fill="#FFFFFF" width="16" height="80"/>
<rect x="665" y="428" fill="#FFFFFF" width="16" height="80"/>
<rect x="685" y="428" fill="#FFFFFF" width="16" height="80"/>
<rect x="705" y="428" fill="#FFFFFF" width="16" height="80"/>
<rect x="725" y="428" fill="#FFFFFF" width="16" height="80"/>
<rect x="745" y="428" fill="#FFFFFF" width="16" height="80"/>
<rect x="765" y="428" fill="#FFFFFF" width="16" height="80"/>
<rect x="785" y="428" fill="#FFFFFF" width="16" height="80"/>
<rect x="805" y="428" fill="#FFFFFF" width="16" height="80"/>
<rect x="825" y="428" fill="#FFFFFF" width="16" height="80"/>
<rect x="845" y="428" fill="#FFFFFF" width="16" height="80"/>
<rect x="865" y="428" fill="#FFFFFF" width="16" height="80"/>
<rect x="885" y="428" fill="#FFFFFF" width="16" height="80"/>
<rect x="905" y="428" fill="#FFFFFF" width="16" height="80"/>
<rect x="925" y="428" fill="#FFFFFF" width="16" height="80"/>
<rect x="945" y="428" fill="#FFFFFF" width="16" height="80"/>
<rect x="965" y="428" fill="#FFFFFF" width="16" height="80"/>
<rect x="985" y="428" fill="#FFFFFF" width="16" height="80"/>
<rect x="1005" y="428" fill="#FFFFFF" width="16" height="80"/>
<rect x="1025" y="428" fill="#FFFFFF" width="16" height="80"/>
<rect x="1045" y="428" fill="#FFFFFF" width="16" height="80"/>
<rect x="1065" y="428" fill="#FFFFFF" width="16" height="80"/>
<rect x="1085" y="428" fill="#FFFFFF" width="16" height="80"/>
<rect x="1105" y="428" fill="#FFFFFF" width="16" height="80"/>
<rect x="1125" y="428" fill="#FFFFFF" width="16" height="80"/>
<rect x="1145" y="428" fill="#FFFFFF" width="16" height="80"/>
<rect x="1165" y="428" fill="#FFFFFF" width="16" height="80"/>
<rect x="1185" y="428" fill="#FFFFFF" width="16" height="80"/>
<rect x="1205" y="428" fill="#FFFFFF" width="16" height="80"/>
<rect x="1225" y="428" fill="#FFFFFF" width="16" height="80"/>
<rect x="1245" y="428" fill="#FFFFFF" width="16" height="80"/>
<rect x="1265" y="428" fill="#FFFFFF" width="16" height="80"/>
<rect x="1285" y="428" fill="#FFFFFF" width="16" height="80"/>
<rect x="1305" y="428" fill="#FFFFFF" width="16" height="80"/>
<rect x="1325" y="428" fill="#FFFFFF" width="16" height="80"/>
<rect x="1345" y="428" fill="#FFFFFF" width="16" height="80"/>
<rect x="5" y="344" fill="#FFFFFF" width="16" height="80"/>
<rect x="25" y="344" fill="#FFFFFF" width="16" height="80"/>
<rect x="45" y="344" fill="#FFFFFF" width="16" height="80"/>
<rect x="65" y="344" fill="#FFFFFF" width="16" height="80"/>
<rect x="85" y="344" fill="#FFFFFF" width="16" height="80"/>
<rect x="105" y="344" fill="#FFFFFF" width="16" height="80"/>
<rect x="125" y="344" fill="#FFFFFF" width="16" height="80"/>
<rect x="145" y="344" fill="#FFFFFF" width="16" height="80"/>
<rect x="165" y="344" fill="#FFFFFF" width="16" height="80"/>
<rect x="185" y="344" fill="#FFFFFF" width="16" height="80"/>
<rect x="205" y="344" fill="#FFFFFF" width="16" height="80"/>
<rect x="225" y="344" fill="#FFFFFF" width="16" height="80"/>
<rect x="245" y="344" fill="#FFFFFF" width="16" height="80"/>
<rect x="265" y="344" fill="#FFFFFF" width="16" height="80"/>
<rect x="285" y="344" fill="#FFFFFF" width="16" height="80"/>
<rect x="305" y="344" fill="#FFFFFF" width="16" height="80"/>
<rect x="325" y="344" fill="#FFFFFF" width="16" height="80"/>
<rect x="345" y="344" fill="#FFFFFF" width="16" height="80"/>
<rect x="365" y="344" fill="#FFFFFF" width="16" height="80"/>
<rect x="385" y="344" fill="#FFFFFF" width="16" height="80"/>
<rect x="405" y="344" fill="#FFFFFF" width="16" height="80"/>
<rect x="425" y="344" fill="#FFFFFF" width="16" height="80"/>
<rect x="445" y="344" fill="#FFFFFF" width="16" height="80"/>
<rect x="465" y="344" fill="#FFFFFF" width="16" height="80"/>
<rect x="485" y="344" fill="#FFFFFF" width="16" height="80"/>
<rect x="505" y="344" fill="#FFFFFF" width="16" height="80"/>
<rect x="525" y="344" fill="#FFFFFF" width="16" height="80"/>
<rect x="545" y="344" fill="#FFFFFF" width="16" height="80"/>
<rect x="565" y="344" fill="#FFFFFF" width="16" height="80"/>
<rect x="585" y="344" fill="#FFFFFF" width="16" height="80"/>
<rect x="605" y="344" fill="#FFFFFF" width="16" height="80"/>
<rect x="625" y="344" fill="#FFFFFF" width="16" height="80"/>
<rect x="645" y="344" fill="#FFFFFF" width="16" height="80"/>
<rect x="665" y="344" fill="#FFFFFF" width="16" height="80"/>
<rect x="685" y="344" fill="#FFFFFF" width="16" height="80"/>
<rect x="705" y="344" fill="#FFFFFF" width="16" height="80"/>
<rect x="725" y="344" fill="#FFFFFF" width="16" height="80"/>
<rect x="745" y="344" fill="#FFFFFF" width="16" height="80"/>
<rect x="765" y="344" fill="#FFFFFF" width="16" height="80"/>
<rect x="785" y="344" fill="#FFFFFF" width="16" height="80"/>
<rect x="805" y="344" fill="#FFFFFF" width="16" height="80"/>
<rect x="825" y="344" fill="#FFFFFF" width="16" height="80"/>
<rect x="845" y="344" fill="#FFFFFF" width="16" height="80"/>
<rect x="865" y="344" fill="#FFFFFF" width="16" height="80"/>
<rect x="885" y="344" fill="#FFFFFF" width="16" height="80"/>
<rect x="905" y="344" fill="#FFFFFF" width="16" height="80"/>
<rect x="925" y="344" fill="#FFFFFF" width="16" height="80"/>
<rect x="945" y="344" fill="#FFFFFF" width="16" height="80"/>
<rect x="965" y="344" fill="#FFFFFF" width="16" height="80"/>
<rect x="985" y="344" fill="#FFFFFF" width="16" height="80"/>
<rect x="1005" y="344" fill="#FFFFFF" width="16" height="80"/>
<rect x="1025" y="344" fill="#FFFFFF" width="16" height="80"/>
<rect x="1045" y="344" fill="#FFFFFF" width="16" height="80"/>
<rect x="1065" y="344" fill="#FFFFFF" width="16" height="80"/>
<rect x="1085" y="344" fill="#FFFFFF" width="16" height="80"/>
<rect x="1105" y="344" fill="#FFFFFF" width="16" height="80"/>
<rect x="1125" y="344" fill="#FFFFFF" width="16" height="80"/>
<rect x="1145" y="344" fill="#FFFFFF" width="16" height="80"/>
<rect x="1165" y="344" fill="#FFFFFF" width="16" height="80"/>
<rect x="1185" y="344" fill="#FFFFFF" width="16" height="80"/>
<rect x="1205" y="344" fill="#FFFFFF" width="16" height="80"/>
<rect x="1225" y="344" fill="#FFFFFF" width="16" height="80"/>
<rect x="1245" y="344" fill="#FFFFFF" width="16" height="80"/>
<rect x="1265" y="344" fill="#FFFFFF" width="16" height="80"/>
<rect x="1285" y="344" fill="#FFFFFF" width="16" height="80"/>
<rect x="1305" y="344" fill="#FFFFFF" width="16" height="80"/>
<rect x="1325" y="344" fill="#FFFFFF" width="16" height="80"/>
<rect x="1345" y="344" fill="#FFFFFF" width="16" height="80"/>
<rect x="5" y="260" fill="#FFFFFF" width="16" height="80"/>
<rect x="25" y="260" fill="#FFFFFF" width="16" height="80"/>
<rect x="45" y="260" fill="#FFFFFF" width="16" height="80"/>
<rect x="65" y="260" fill="#FFFFFF" width="16" height="80"/>
<rect x="85" y="260" fill="#FFFFFF" width="16" height="80"/>
<rect x="105" y="260" fill="#FFFFFF" width="16" height="80"/>
<rect x="125" y="260" fill="#FFFFFF" width="16" height="80"/>
<rect x="145" y="260" fill="#FFFFFF" width="16" height="80"/>
<rect x="165" y="260" fill="#FFFFFF" width="16" height="80"/>
<rect x="185" y="260" fill="#FFFFFF" width="16" height="80"/>
<rect x="205" y="260" fill="#FFFFFF" width="16" height="80"/>
<rect x="225" y="260" fill="#FFFFFF" width="16" height="80"/>
<rect x="245" y="260" fill="#FFFFFF" width="16" height="80"/>
<rect x="265" y="260" fill="#FFFFFF" width="16" height="80"/>
<rect x="285" y="260" fill="#FFFFFF" width="16" height="80"/>
<rect x="305" y="260" fill="#FFFFFF" width="16" height="80"/>
<rect x="325" y="260" fill="#FFFFFF" width="16" height="80"/>
<rect x="345" y="260" fill="#FFFFFF" width="16" height="80"/>
<rect x="365" y="260" fill="#FFFFFF" width="16" height="80"/>
<rect x="385" y="260" fill="#FFFFFF" width="16" height="80"/>
<rect x="405" y="260" fill="#FFFFFF" width="16" height="80"/>
<rect x="425" y="260" fill="#FFFFFF" width="16" height="80"/>
<rect x="445" y="260" fill="#FFFFFF" width="16" height="80"/>
<rect x="465" y="260" fill="#FFFFFF" width="16" height="80"/>
<rect x="485" y="260" fill="#FFFFFF" width="16" height="80"/>
<rect x="505" y="260" fill="#FFFFFF" width="16" height="80"/>
<rect x="525" y="260" fill="#FFFFFF" width="16" height="80"/>
<rect x="545" y="260" fill="#FFFFFF" width="16" height="80"/>
<rect x="565" y="260" fill="#FFFFFF" width="16" height="80"/>
<rect x="585" y="260" fill="#FFFFFF" width="16" height="80"/>
<rect x="605" y="260" fill="#FFFFFF" width="16" height="80"/>
<rect x="625" y="260" fill="#FFFFFF" width="16" height="80"/>
<rect x="645" y="260" fill="#FFFFFF" width="16" height="80"/>
<rect x="665" y="260" fill="#FFFFFF" width="16" height="80"/>
<rect x="685" y="260" fill="#FFFFFF" width="16" height="80"/>
<rect x="705" y="260" fill="#FFFFFF" width="16" height="80"/>
<rect x="725" y="260" fill="#FFFFFF" width="16" height="80"/>
<rect x="745" y="260" fill="#FFFFFF" width="16" height="80"/>
<rect x="765" y="260" fill="#FFFFFF" width="16" height="80"/>
<rect x="785" y="260" fill="#FFFFFF" width="16" height="80"/>
<rect x="805" y="260" fill="#FFFFFF" width="16" height="80"/>
<rect x="825" y="260" fill="#FFFFFF" width="16" height="80"/>
<rect x="845" y="260" fill="#FFFFFF" width="16" height="80"/>
<rect x="865" y="260" fill="#FFFFFF" width="16" height="80"/>
<rect x="885" y="260" fill="#FFFFFF" width="16" height="80"/>
<rect x="905" y="260" fill="#FFFFFF" width="16" height="80"/>
<rect x="925" y="260" fill="#FFFFFF" width="16" height="80"/>
<rect x="945" y="260" fill="#FFFFFF" width="16" height="80"/>
<rect x="965" y="260" fill="#FFFFFF" width="16" height="80"/>
<rect x="985" y="260" fill="#FFFFFF" width="16" height="80"/>
<rect x="1005" y="260" fill="#FFFFFF" width="16" height="80"/>
<rect x="1025" y="260" fill="#FFFFFF" width="16" height="80"/>
<rect x="1045" y="260" fill="#FFFFFF" width="16" height="80"/>
<rect x="1065" y="260" fill="#FFFFFF" width="16" height="80"/>
<rect x="1085" y="260" fill="#FFFFFF" width="16" height="80"/>
<rect x="1105" y="260" fill="#FFFFFF" width="16" height="80"/>
<rect x="1125" y="260" fill="#FFFFFF" width="16" height="80"/>
<rect x="1145" y="260" fill="#FFFFFF" width="16" height="80"/>
<rect x="1165" y="260" fill="#FFFFFF" width="16" height="80"/>
<rect x="1185" y="260" fill="#FFFFFF" width="16" height="80"/>
<rect x="1205" y="260" fill="#FFFFFF" width="16" height="80"/>
<rect x="1225" y="260" fill="#FFFFFF" width="16" height="80"/>
<rect x="1245" y="260" fill="#FFFFFF" width="16" height="80"/>
<rect x="1265" y="260" fill="#FFFFFF" width="16" height="80"/>
<rect x="1285" y="260" fill="#FFFFFF" width="16" height="80"/>
<rect x="1305" y="260" fill="#FFFFFF" width="16" height="80"/>
<rect x="1325" y="260" fill="#FFFFFF" width="16" height="80"/>
<rect x="1345" y="260" fill="#FFFFFF" width="16" height="80"/>
<rect x="5" y="176" fill="#FFFFFF" width="16" height="80"/>
<rect x="25" y="176" fill="#FFFFFF" width="16" height="80"/>
<rect x="45" y="176" fill="#FFFFFF" width="16" height="80"/>
<rect x="65" y="176" fill="#FFFFFF" width="16" height="80"/>
<rect x="85" y="176" fill="#FFFFFF" width="16" height="80"/>
<rect x="105" y="176" fill="#FFFFFF" width="16" height="80"/>
<rect x="125" y="176" fill="#FFFFFF" width="16" height="80"/>
<rect x="145" y="176" fill="#FFFFFF" width="16" height="80"/>
<rect x="165" y="176" fill="#FFFFFF" width="16" height="80"/>
<rect x="185" y="176" fill="#FFFFFF" width="16" height="80"/>
<rect x="205" y="176" fill="#FFFFFF" width="16" height="80"/>
<rect x="225" y="176" fill="#FFFFFF" width="16" height="80"/>
<rect x="245" y="176" fill="#FFFFFF" width="16" height="80"/>
<rect x="265" y="176" fill="#FFFFFF" width="16" height="80"/>
<rect x="285" y="176" fill="#FFFFFF" width="16" height="80"/>
<rect x="305" y="176" fill="#FFFFFF" width="16" height="80"/>
<rect x="325" y="176" fill="#FFFFFF" width="16" height="80"/>
<rect x="345" y="176" fill="#FFFFFF" width="16" height="80"/>
<rect x="365" y="176" fill="#FFFFFF" width="16" height="80"/>
<rect x="385" y="176" fill="#FFFFFF" width="16" height="80"/>
<rect x="405" y="176" fill="#FFFFFF" width="16" height="80"/>
<rect x="425" y="176" fill="#FFFFFF" width="16" height="80"/>
<rect x="445" y="176" fill="#FFFFFF" width="16" height="80"/>
<rect x="465" y="176" fill="#FFFFFF" width="16" height="80"/>
<rect x="485" y="176" fill="#FFFFFF" width="16" height="80"/>
<rect x="505" y="176" fill="#FFFFFF" width="16" height="80"/>
<rect x="525" y="176" fill="#FFFFFF" width="16" height="80"/>
<rect x="545" y="176" fill="#FFFFFF" width="16" height="80"/>
<rect x="565" y="176" fill="#FFFFFF" width="16" height="80"/>
<rect x="585" y="176" fill="#FFFFFF" width="16" height="80"/>
<rect x="605" y="176" fill="#FFFFFF" width="16" height="80"/>
<rect x="625" y="176" fill="#FFFFFF" width="16" height="80"/>
<rect x="645" y="176" fill="#FFFFFF" width="16" height="80"/>
<rect x="665" y="176" fill="#FFFFFF" width="16" height="80"/>
<rect x="685" y="176" fill="#FFFFFF" width="16" height="80"/>
<rect x="705" y="176" fill="#FFFFFF" width="16" height="80"/>
<rect x="725" y="176" fill="#FFFFFF" width="16" height="80"/>
<rect x="745" y="176" fill="#FFFFFF" width="16" height="80"/>
<rect x="765" y="176" fill="#FFFFFF" width="16" height="80"/>
<rect x="785" y="176" fill="#FFFFFF" width="16" height="80"/>
<rect x="805" y="176" fill="#FFFFFF" width="16" height="80"/>
<rect x="825" y="176" fill="#FFFFFF" width="16" height="80"/>
<rect x="845" y="176" fill="#FFFFFF" width="16" height="80"/>
<rect x="865" y="176" fill="#FFFFFF" width="16" height="80"/>
<rect x="885" y="176" fill="#FFFFFF" width="16" height="80"/>
<rect x="905" y="176" fill="#FFFFFF" width="16" height="80"/>
<rect x="925" y="176" fill="#FFFFFF" width="16" height="80"/>
<rect x="945" y="176" fill="#FFFFFF" width="16" height="80"/>
<rect x="965" y="176" fill="#FFFFFF" width="16" height="80"/>
<rect x="985" y="176" fill="#FFFFFF" width="16" height="80"/>
<rect x="1005" y="176" fill="#FFFFFF" width="16" height="80"/>
<rect x="1025" y="176" fill="#FFFFFF" width="16" height="80"/>
<rect x="1045" y="176" fill="#FFFFFF" width="16" height="80"/>
<rect x="1065" y="176" fill="#FFFFFF" width="16" height="80"/>
<rect x="1085" y="176" fill="#FFFFFF" width="16" height="80"/>
<rect x="1105" y="176" fill="#FFFFFF" width="16" height="80"/>
<rect x="1125" y="176" fill="#FFFFFF" width="16" height="80"/>
<rect x="1145" y="176" fill="#FFFFFF" width="16" height="80"/>
<rect x="1165" y="176" fill="#FFFFFF" width="16" height="80"/>
<rect x="1185" y="176" fill="#FFFFFF" width="16" height="80"/>
<rect x="1205" y="176" fill="#FFFFFF" width="16" height="80"/>
<rect x="1225" y="176" fill="#FFFFFF" width="16" height="80"/>
<rect x="1245" y="176" fill="#FFFFFF" width="16" height="80"/>
<rect x="1265" y="176" fill="#FFFFFF" width="16" height="80"/>
<rect x="1285" y="176" fill="#FFFFFF" width="16" height="80"/>
<rect x="1305" y="176" fill="#FFFFFF" width="16" height="80"/>
<rect x="1325" y="176" fill="#FFFFFF" width="16" height="80"/>
<rect x="1345" y="176" fill="#FFFFFF" width="16" height="80"/>
<rect x="5" y="92" fill="#FFFFFF" width="16" height="80"/>
<rect x="25" y="92" fill="#FFFFFF" width="16" height="80"/>
<rect x="45" y="92" fill="#FFFFFF" width="16" height="80"/>
<rect x="65" y="92" fill="#FFFFFF" width="16" height="80"/>
<rect x="85" y="92" fill="#FFFFFF" width="16" height="80"/>
<rect x="105" y="92" fill="#FFFFFF" width="16" height="80"/>
<rect x="125" y="92" fill="#FFFFFF" width="16" height="80"/>
<rect x="145" y="92" fill="#FFFFFF" width="16" height="80"/>
<rect x="165" y="92" fill="#FFFFFF" width="16" height="80"/>
<rect x="185" y="92" fill="#FFFFFF" width="16" height="80"/>
<rect x="205" y="92" fill="#FFFFFF" width="16" height="80"/>
<rect x="225" y="92" fill="#FFFFFF" width="16" height="80"/>
<rect x="245" y="92" fill="#FFFFFF" width="16" height="80"/>
<rect x="265" y="92" fill="#FFFFFF" width="16" height="80"/>
<rect x="285" y="92" fill="#FFFFFF" width="16" height="80"/>
<rect x="305" y="92" fill="#FFFFFF" width="16" height="80"/>
<rect x="325" y="92" fill="#FFFFFF" width="16" height="80"/>
<rect x="345" y="92" fill="#FFFFFF" width="16" height="80"/>
<rect x="365" y="92" fill="#FFFFFF" width="16" height="80"/>
<rect x="385" y="92" fill="#FFFFFF" width="16" height="80"/>
<rect x="405" y="92" fill="#FFFFFF" width="16" height="80"/>
<rect x="425" y="92" fill="#FFFFFF" width="16" height="80"/>
<rect x="445" y="92" fill="#FFFFFF" width="16" height="80"/>
<rect x="465" y="92" fill="#FFFFFF" width="16" height="80"/>
<rect x="485" y="92" fill="#FFFFFF" width="16" height="80"/>
<rect x="505" y="92" fill="#FFFFFF" width="16" height="80"/>
<rect x="525" y="92" fill="#FFFFFF" width="16" height="80"/>
<rect x="545" y="92" fill="#FFFFFF" width="16" height="80"/>
<rect x="565" y="92" fill="#FFFFFF" width="16" height="80"/>
<rect x="585" y="92" fill="#FFFFFF" width="16" height="80"/>
<rect x="605" y="92" fill="#FFFFFF" width="16" height="80"/>
<rect x="625" y="92" fill="#FFFFFF" width="16" height="80"/>
<rect x="645" y="92" fill="#FFFFFF" width="16" height="80"/>
<rect x="665" y="92" fill="#FFFFFF" width="16" height="80"/>
<rect x="685" y="92" fill="#FFFFFF" width="16" height="80"/>
<rect x="705" y="92" fill="#FFFFFF" width="16" height="80"/>
<rect x="725" y="92" fill="#FFFFFF" width="16" height="80"/>
<rect x="745" y="92" fill="#FFFFFF" width="16" height="80"/>
<rect x="765" y="92" fill="#FFFFFF" width="16" height="80"/>
<rect x="785" y="92" fill="#FFFFFF" width="16" height="80"/>
<rect x="805" y="92" fill="#FFFFFF" width="16" height="80"/>
<rect x="825" y="92" fill="#FFFFFF" width="16" height="80"/>
<rect x="845" y="92" fill="#FFFFFF" width="16" height="80"/>
<rect x="865" y="92" fill="#FFFFFF" width="16" height="80"/>
<rect x="885" y="92" fill="#FFFFFF" width="16" height="80"/>
<rect x="905" y="92" fill="#FFFFFF" width="16" height="80"/>
<rect x="925" y="92" fill="#FFFFFF" width="16" height="80"/>
<rect x="945" y="92" fill="#FFFFFF" width="16" height="80"/>
<rect x="965" y="92" fill="#FFFFFF" width="16" height="80"/>
<rect x="985" y="92" fill="#FFFFFF" width="16" height="80"/>
<rect x="1005" y="92" fill="#FFFFFF" width="16" height="80"/>
<rect x="1025" y="92" fill="#FFFFFF" width="16" height="80"/>
<rect x="1045" y="92" fill="#FFFFFF" width="16" height="80"/>
<rect x="1065" y="92" fill="#FFFFFF" width="16" height="80"/>
<rect x="1085" y="92" fill="#FFFFFF" width="16" height="80"/>
<rect x="1105" y="92" fill="#FFFFFF" width="16" height="80"/>
<rect x="1125" y="92" fill="#FFFFFF" width="16" height="80"/>
<rect x="1145" y="92" fill="#FFFFFF" width="16" height="80"/>
<rect x="1165" y="92" fill="#FFFFFF" width="16" height="80"/>
<rect x="1185" y="92" fill="#FFFFFF" width="16" height="80"/>
<rect x="1205" y="92" fill="#FFFFFF" width="16" height="80"/>
<rect x="1225" y="92" fill="#FFFFFF" width="16" height="80"/>
<rect x="1245" y="92" fill="#FFFFFF" width="16" height="80"/>
<rect x="1265" y="92" fill="#FFFFFF" width="16" height="80"/>
<rect x="1285" y="92" fill="#FFFFFF" width="16" height="80"/>
<rect x="1305" y="92" fill="#FFFFFF" width="16" height="80"/>
<rect x="1325" y="92" fill="#FFFFFF" width="16" height="80"/>
<rect x="1345" y="92" fill="#FFFFFF" width="16" height="80"/>
<rect x="5" y="8" fill="#FFFFFF" width="16" height="80"/>
<rect x="25" y="8" fill="#FFFFFF" width="16" height="80"/>
<rect x="45" y="8" fill="#FFFFFF" width="16" height="80"/>
<rect x="65" y="8" fill="#FFFFFF" width="16" height="80"/>
<rect x="85" y="8" fill="#FFFFFF" width="16" height="80"/>
<rect x="105" y="8" fill="#FFFFFF" width="16" height="80"/>
<rect x="125" y="8" fill="#FFFFFF" width="16" height="80"/>
<rect x="145" y="8" fill="#FFFFFF" width="16" height="80"/>
<rect x="165" y="8" fill="#FFFFFF" width="16" height="80"/>
<rect x="185" y="8" fill="#FFFFFF" width="16" height="80"/>
<rect x="205" y="8" fill="#FFFFFF" width="16" height="80"/>
<rect x="225" y="8" fill="#FFFFFF" width="16" height="80"/>
<rect x="245" y="8" fill="#FFFFFF" width="16" height="80"/>
<rect x="265" y="8" fill="#FFFFFF" width="16" height="80"/>
<rect x="285" y="8" fill="#FFFFFF" width="16" height="80"/>
<rect x="305" y="8" fill="#FFFFFF" width="16" height="80"/>
<rect x="325" y="8" fill="#FFFFFF" width="16" height="80"/>
<rect x="345" y="8" fill="#FFFFFF" width="16" height="80"/>
<rect x="365" y="8" fill="#FFFFFF" width="16" height="80"/>
<rect x="385" y="8" fill="#FFFFFF" width="16" height="80"/>
<rect x="405" y="8" fill="#FFFFFF" width="16" height="80"/>
<rect x="425" y="8" fill="#FFFFFF" width="16" height="80"/>
<rect x="445" y="8" fill="#FFFFFF" width="16" height="80"/>
<rect x="465" y="8" fill="#FFFFFF" width="16" height="80"/>
<rect x="485" y="8" fill="#FFFFFF" width="16" height="80"/>
<rect x="505" y="8" fill="#FFFFFF" width="16" height="80"/>
<rect x="525" y="8" fill="#FFFFFF" width="16" height="80"/>
<rect x="545" y="8" fill="#FFFFFF" width="16" height="80"/>
<rect x="565" y="8" fill="#FFFFFF" width="16" height="80"/>
<rect x="585" y="8" fill="#FFFFFF" width="16" height="80"/>
<rect x="605" y="8" fill="#FFFFFF" width="16" height="80"/>
<rect x="625" y="8" fill="#FFFFFF" width="16" height="80"/>
<rect x="645" y="8" fill="#FFFFFF" width="16" height="80"/>
<rect x="665" y="8" fill="#FFFFFF" width="16" height="80"/>
<rect x="685" y="8" fill="#FFFFFF" width="16" height="80"/>
<rect x="705" y="8" fill="#FFFFFF" width="16" height="80"/>
<rect x="725" y="8" fill="#FFFFFF" width="16" height="80"/>
<rect x="745" y="8" fill="#FFFFFF" width="16" height="80"/>
<rect x="765" y="8" fill="#FFFFFF" width="16" height="80"/>
<rect x="785" y="8" fill="#FFFFFF" width="16" height="80"/>
<rect x="805" y="8" fill="#FFFFFF" width="16" height="80"/>
<rect x="825" y="8" fill="#FFFFFF" width="16" height="80"/>
<rect x="845" y="8" fill="#FFFFFF" width="16" height="80"/>
<rect x="865" y="8" fill="#FFFFFF" width="16" height="80"/>
<rect x="885" y="8" fill="#FFFFFF" width="16" height="80"/>
<rect x="905" y="8" fill="#FFFFFF" width="16" height="80"/>
<rect x="925" y="8" fill="#FFFFFF" width="16" height="80"/>
<rect x="945" y="8" fill="#FFFFFF" width="16" height="80"/>
<rect x="965" y="8" fill="#FFFFFF" width="16" height="80"/>
<rect x="985" y="8" fill="#FFFFFF" width="16" height="80"/>
<rect x="1005" y="8" fill="#FFFFFF" width="16" height="80"/>
<rect x="1025" y="8" fill="#FFFFFF" width="16" height="80"/>
<rect x="1045" y="8" fill="#FFFFFF" width="16" height="80"/>
<rect x="1065" y="8" fill="#FFFFFF" width="16" height="80"/>
<rect x="1085" y="8" fill="#FFFFFF" width="16" height="80"/>
<rect x="1105" y="8" fill="#FFFFFF" width="16" height="80"/>
<rect x="1125" y="8" fill="#FFFFFF" width="16" height="80"/>
<rect x="1145" y="8" fill="#FFFFFF" width="16" height="80"/>
<rect x="1165" y="8" fill="#FFFFFF" width="16" height="80"/>
<rect x="1185" y="8" fill="#FFFFFF" width="16" height="80"/>
<rect x="1205" y="8" fill="#FFFFFF" width="16" height="80"/>
<rect x="1225" y="8" fill="#FFFFFF" width="16" height="80"/>
<rect x="1245" y="8" fill="#FFFFFF" width="16" height="80"/>
<rect x="1265" y="8" fill="#FFFFFF" width="16" height="80"/>
<rect x="1285" y="8" fill="#FFFFFF" width="16" height="80"/>
<rect x="1305" y="8" fill="#FFFFFF" width="16" height="80"/>
<rect x="1325" y="8" fill="#FFFFFF" width="16" height="80"/>
<rect x="1345" y="8" fill="#FFFFFF" width="16" height="80"/>
</svg>
