<?xml version="1.0" encoding="utf-8"?>
<!-- Generator: Adobe Illustrator 15.1.0, SVG Export Plug-In  -->
<!DOCTYPE svg PUBLIC "-//W3C//DTD SVG 1.1//EN" "http://www.w3.org/Graphics/SVG/1.1/DTD/svg11.dtd" [
	<!ENTITY ns_flows "http://ns.adobe.com/Flows/1.0/">
]>
<svg version="1.1"
	 xmlns="http://www.w3.org/2000/svg" xmlns:xlink="http://www.w3.org/1999/xlink" xmlns:a="http://ns.adobe.com/AdobeSVGViewerExtensions/3.0/"
	 x="0px" y="0px" width="1366px" height="768px" viewBox="0 0 1366 768" overflow="visible" enable-background="new 0 0 1366 768"
	 xml:space="preserve">
<defs>
</defs>
<rect fill="none" width="1366" height="768"/>
<rect x="12" y="671" fill="#FFFFFF" width="16" height="84"/>
<rect x="38" y="671" fill="#FFFFFF" width="16" height="84"/>
<rect x="64" y="671" fill="#FFFFFF" width="16" height="84"/>
<rect x="90" y="671" fill="#FFFFFF" width="16" height="84"/>
<rect x="116" y="671" fill="#FFFFFF" width="16" height="84"/>
<rect x="142" y="671" fill="#FFFFFF" width="16" height="84"/>
<rect x="168" y="671" fill="#FFFFFF" width="16" height="84"/>
<rect x="194" y="671" fill="#FFFFFF" width="16" height="84"/>
<rect x="220" y="671" fill="#FFFFFF" width="16" height="84"/>
<rect x="246" y="671" fill="#FFFFFF" width="16" height="84"/>
<rect x="272" y="671" fill="#FFFFFF" width="16" height="84"/>
<rect x="298" y="671" fill="#FFFFFF" width="16" height="84"/>
<rect x="324" y="671" fill="#FFFFFF" width="16" height="84"/>
<rect x="350" y="671" fill="#FFFFFF" width="16" height="84"/>
<rect x="376" y="671" fill="#FFFFFF" width="16" height="84"/>
<rect x="402" y="671" fill="#FFFFFF" width="16" height="84"/>
<rect x="428" y="671" fill="#FFFFFF" width="16" height="84"/>
<rect x="454" y="671" fill="#FFFFFF" width="16" height="84"/>
<rect x="480" y="671" fill="#FFFFFF" width="16" height="84"/>
<rect x="506" y="671" fill="#FFFFFF" width="16" height="84"/>
<rect x="532" y="671" fill="#FFFFFF" width="16" height="84"/>
<rect x="558" y="671" fill="#FFFFFF" width="16" height="84"/>
<rect x="584" y="671" fill="#FFFFFF" width="16" height="84"/>
<rect x="610" y="671" fill="#FFFFFF" width="16" height="84"/>
<rect x="636" y="671" fill="#FFFFFF" width="16" height="84"/>
<rect x="662" y="671" fill="#FFFFFF" width="16" height="84"/>
<rect x="688" y="671" fill="#FFFFFF" width="16" height="84"/>
<rect x="714" y="671" fill="#FFFFFF" width="16" height="84"/>
<rect x="740" y="671" fill="#FFFFFF" width="16" height="84"/>
<rect x="766" y="671" fill="#FFFFFF" width="16" height="84"/>
<rect x="792" y="671" fill="#FFFFFF" width="16" height="84"/>
<rect x="818" y="671" fill="#FFFFFF" width="16" height="84"/>
<rect x="844" y="671" fill="#FFFFFF" width="16" height="84"/>
<rect x="870" y="671" fill="#FFFFFF" width="16" height="84"/>
<rect x="896" y="671" fill="#FFFFFF" width="16" height="84"/>
<rect x="922" y="671" fill="#FFFFFF" width="16" height="84"/>
<rect x="948" y="671" fill="#FFFFFF" width="16" height="84"/>
<rect x="974" y="671" fill="#FFFFFF" width="16" height="84"/>
<rect x="1000" y="671" fill="#FFFFFF" width="16" height="84"/>
<rect x="1026" y="671" fill="#FFFFFF" width="16" height="84"/>
<rect x="1052" y="671" fill="#FFFFFF" width="16" height="84"/>
<rect x="1078" y="671" fill="#FFFFFF" width="16" height="84"/>
<rect x="1104" y="671" fill="#FFFFFF" width="16" height="84"/>
<rect x="1130" y="671" fill="#FFFFFF" width="16" height="84"/>
<rect x="1156" y="671" fill="#FFFFFF" width="16" height="84"/>
<rect x="1182" y="671" fill="#FFFFFF" width="16" height="84"/>
<rect x="1208" y="671" fill="#FFFFFF" width="16" height="84"/>
<rect x="1234" y="671" fill="#FFFFFF" width="16" height="84"/>
<rect x="1260" y="671" fill="#FFFFFF" width="16" height="84"/>
<rect x="1286" y="671" fill="#FFFFFF" width="16" height="84"/>
<rect x="1312" y="671" fill="#FFFFFF" width="16" height="84"/>
<rect x="1338" y="671" fill="#FFFFFF" width="16" height="84"/>
<rect x="12" y="577" fill="#FFFFFF" width="16" height="84"/>
<rect x="38" y="577" fill="#FFFFFF" width="16" height="84"/>
<rect x="64" y="577" fill="#FFFFFF" width="16" height="84"/>
<rect x="90" y="577" fill="#FFFFFF" width="16" height="84"/>
<rect x="116" y="577" fill="#FFFFFF" width="16" height="84"/>
<rect x="142" y="577" fill="#FFFFFF" width="16" height="84"/>
<rect x="168" y="577" fill="#FFFFFF" width="16" height="84"/>
<rect x="194" y="577" fill="#FFFFFF" width="16" height="84"/>
<rect x="220" y="577" fill="#FFFFFF" width="16" height="84"/>
<rect x="246" y="577" fill="#FFFFFF" width="16" height="84"/>
<rect x="272" y="577" fill="#FFFFFF" width="16" height="84"/>
<rect x="298" y="577" fill="#FFFFFF" width="16" height="84"/>
<rect x="324" y="577" fill="#FFFFFF" width="16" height="84"/>
<rect x="350" y="577" fill="#FFFFFF" width="16" height="84"/>
<rect x="376" y="577" fill="#FFFFFF" width="16" height="84"/>
<rect x="402" y="577" fill="#FFFFFF" width="16" height="84"/>
<rect x="428" y="577" fill="#FFFFFF" width="16" height="84"/>
<rect x="454" y="577" fill="#FFFFFF" width="16" height="84"/>
<rect x="480" y="577" fill="#FFFFFF" width="16" height="84"/>
<rect x="506" y="577" fill="#FFFFFF" width="16" height="84"/>
<rect x="532" y="577" fill="#FFFFFF" width="16" height="84"/>
<rect x="558" y="577" fill="#FFFFFF" width="16" height="84"/>
<rect x="584" y="577" fill="#FFFFFF" width="16" height="84"/>
<rect x="610" y="577" fill="#FFFFFF" width="16" height="84"/>
<rect x="636" y="577" fill="#FFFFFF" width="16" height="84"/>
<rect x="662" y="577" fill="#FFFFFF" width="16" height="84"/>
<rect x="688" y="577" fill="#FFFFFF" width="16" height="84"/>
<rect x="714" y="577" fill="#FFFFFF" width="16" height="84"/>
<rect x="740" y="577" fill="#FFFFFF" width="16" height="84"/>
<rect x="766" y="577" fill="#FFFFFF" width="16" height="84"/>
<rect x="792" y="577" fill="#FFFFFF" width="16" height="84"/>
<rect x="818" y="577" fill="#FFFFFF" width="16" height="84"/>
<rect x="844" y="577" fill="#FFFFFF" width="16" height="84"/>
<rect x="870" y="577" fill="#FFFFFF" width="16" height="84"/>
<rect x="896" y="577" fill="#FFFFFF" width="16" height="84"/>
<rect x="922" y="577" fill="#FFFFFF" width="16" height="84"/>
<rect x="948" y="577" fill="#FFFFFF" width="16" height="84"/>
<rect x="974" y="577" fill="#FFFFFF" width="16" height="84"/>
<rect x="1000" y="577" fill="#FFFFFF" width="16" height="84"/>
<rect x="1026" y="577" fill="#FFFFFF" width="16" height="84"/>
<rect x="1052" y="577" fill="#FFFFFF" width="16" height="84"/>
<rect x="1078" y="577" fill="#FFFFFF" width="16" height="84"/>
<rect x="1104" y="577" fill="#FFFFFF" width="16" height="84"/>
<rect x="1130" y="577" fill="#FFFFFF" width="16" height="84"/>
<rect x="1156" y="577" fill="#FFFFFF" width="16" height="84"/>
<rect x="1182" y="577" fill="#FFFFFF" width="16" height="84"/>
<rect x="1208" y="577" fill="#FFFFFF" width="16" height="84"/>
<rect x="1234" y="577" fill="#FFFFFF" width="16" height="84"/>
<rect x="1260" y="577" fill="#FFFFFF" width="16" height="84"/>
<rect x="1286" y="577" fill="#FFFFFF" width="16" height="84"/>
<rect x="1312" y="577" fill="#FFFFFF" width="16" height="84"/>
<rect x="1338" y="577" fill="#FFFFFF" width="16" height="84"/>
<rect x="12" y="483" fill="#FFFFFF" width="16" height="84"/>
<rect x="38" y="483" fill="#FFFFFF" width="16" height="84"/>
<rect x="64" y="483" fill="#FFFFFF" width="16" height="84"/>
<rect x="90" y="483" fill="#FFFFFF" width="16" height="84"/>
<rect x="116" y="483" fill="#FFFFFF" width="16" height="84"/>
<rect x="142" y="483" fill="#FFFFFF" width="16" height="84"/>
<rect x="168" y="483" fill="#FFFFFF" width="16" height="84"/>
<rect x="194" y="483" fill="#FFFFFF" width="16" height="84"/>
<rect x="220" y="483" fill="#FFFFFF" width="16" height="84"/>
<rect x="246" y="483" fill="#FFFFFF" width="16" height="84"/>
<rect x="272" y="483" fill="#FFFFFF" width="16" height="84"/>
<rect x="298" y="483" fill="#FFFFFF" width="16" height="84"/>
<rect x="324" y="483" fill="#FFFFFF" width="16" height="84"/>
<rect x="350" y="483" fill="#FFFFFF" width="16" height="84"/>
<rect x="376" y="483" fill="#FFFFFF" width="16" height="84"/>
<rect x="402" y="483" fill="#FFFFFF" width="16" height="84"/>
<rect x="428" y="483" fill="#FFFFFF" width="16" height="84"/>
<rect x="454" y="483" fill="#FFFFFF" width="16" height="84"/>
<rect x="480" y="483" fill="#FFFFFF" width="16" height="84"/>
<rect x="506" y="483" fill="#FFFFFF" width="16" height="84"/>
<rect x="532" y="483" fill="#FFFFFF" width="16" height="84"/>
<rect x="558" y="483" fill="#FFFFFF" width="16" height="84"/>
<rect x="584" y="483" fill="#FFFFFF" width="16" height="84"/>
<rect x="610" y="483" fill="#FFFFFF" width="16" height="84"/>
<rect x="636" y="483" fill="#FFFFFF" width="16" height="84"/>
<rect x="662" y="483" fill="#FFFFFF" width="16" height="84"/>
<rect x="688" y="483" fill="#FFFFFF" width="16" height="84"/>
<rect x="714" y="483" fill="#FFFFFF" width="16" height="84"/>
<rect x="740" y="483" fill="#FFFFFF" width="16" height="84"/>
<rect x="766" y="483" fill="#FFFFFF" width="16" height="84"/>
<rect x="792" y="483" fill="#FFFFFF" width="16" height="84"/>
<rect x="818" y="483" fill="#FFFFFF" width="16" height="84"/>
<rect x="844" y="483" fill="#FFFFFF" width="16" height="84"/>
<rect x="870" y="483" fill="#FFFFFF" width="16" height="84"/>
<rect x="896" y="483" fill="#FFFFFF" width="16" height="84"/>
<rect x="922" y="483" fill="#FFFFFF" width="16" height="84"/>
<rect x="948" y="483" fill="#FFFFFF" width="16" height="84"/>
<rect x="974" y="483" fill="#FFFFFF" width="16" height="84"/>
<rect x="1000" y="483" fill="#FFFFFF" width="16" height="84"/>
<rect x="1026" y="483" fill="#FFFFFF" width="16" height="84"/>
<rect x="1052" y="483" fill="#FFFFFF" width="16" height="84"/>
<rect x="1078" y="483" fill="#FFFFFF" width="16" height="84"/>
<rect x="1104" y="483" fill="#FFFFFF" width="16" height="84"/>
<rect x="1130" y="483" fill="#FFFFFF" width="16" height="84"/>
<rect x="1156" y="483" fill="#FFFFFF" width="16" height="84"/>
<rect x="1182" y="483" fill="#FFFFFF" width="16" height="84"/>
<rect x="1208" y="483" fill="#FFFFFF" width="16" height="84"/>
<rect x="1234" y="483" fill="#FFFFFF" width="16" height="84"/>
<rect x="1260" y="483" fill="#FFFFFF" width="16" height="84"/>
<rect x="1286" y="483" fill="#FFFFFF" width="16" height="84"/>
<rect x="1312" y="483" fill="#FFFFFF" width="16" height="84"/>
<rect x="1338" y="483" fill="#FFFFFF" width="16" height="84"/>
<rect x="12" y="389" fill="#FFFFFF" width="16" height="84"/>
<rect x="38" y="389" fill="#FFFFFF" width="16" height="84"/>
<rect x="64" y="389" fill="#FFFFFF" width="16" height="84"/>
<rect x="90" y="389" fill="#FFFFFF" width="16" height="84"/>
<rect x="116" y="389" fill="#FFFFFF" width="16" height="84"/>
<rect x="142" y="389" fill="#FFFFFF" width="16" height="84"/>
<rect x="168" y="389" fill="#FFFFFF" width="16" height="84"/>
<rect x="194" y="389" fill="#FFFFFF" width="16" height="84"/>
<rect x="220" y="389" fill="#FFFFFF" width="16" height="84"/>
<rect x="246" y="389" fill="#FFFFFF" width="16" height="84"/>
<rect x="272" y="389" fill="#FFFFFF" width="16" height="84"/>
<rect x="298" y="389" fill="#FFFFFF" width="16" height="84"/>
<rect x="324" y="389" fill="#FFFFFF" width="16" height="84"/>
<rect x="350" y="389" fill="#FFFFFF" width="16" height="84"/>
<rect x="376" y="389" fill="#FFFFFF" width="16" height="84"/>
<rect x="402" y="389" fill="#FFFFFF" width="16" height="84"/>
<rect x="428" y="389" fill="#FFFFFF" width="16" height="84"/>
<rect x="454" y="389" fill="#FFFFFF" width="16" height="84"/>
<rect x="480" y="389" fill="#FFFFFF" width="16" height="84"/>
<rect x="506" y="389" fill="#FFFFFF" width="16" height="84"/>
<rect x="532" y="389" fill="#FFFFFF" width="16" height="84"/>
<rect x="558" y="389" fill="#FFFFFF" width="16" height="84"/>
<rect x="584" y="389" fill="#FFFFFF" width="16" height="84"/>
<rect x="610" y="389" fill="#FFFFFF" width="16" height="84"/>
<rect x="636" y="389" fill="#FFFFFF" width="16" height="84"/>
<rect x="662" y="389" fill="#FFFFFF" width="16" height="84"/>
<rect x="688" y="389" fill="#FFFFFF" width="16" height="84"/>
<rect x="714" y="389" fill="#FFFFFF" width="16" height="84"/>
<rect x="740" y="389" fill="#FFFFFF" width="16" height="84"/>
<rect x="766" y="389" fill="#FFFFFF" width="16" height="84"/>
<rect x="792" y="389" fill="#FFFFFF" width="16" height="84"/>
<rect x="818" y="389" fill="#FFFFFF" width="16" height="84"/>
<rect x="844" y="389" fill="#FFFFFF" width="16" height="84"/>
<rect x="870" y="389" fill="#FFFFFF" width="16" height="84"/>
<rect x="896" y="389" fill="#FFFFFF" width="16" height="84"/>
<rect x="922" y="389" fill="#FFFFFF" width="16" height="84"/>
<rect x="948" y="389" fill="#FFFFFF" width="16" height="84"/>
<rect x="974" y="389" fill="#FFFFFF" width="16" height="84"/>
<rect x="1000" y="389" fill="#FFFFFF" width="16" height="84"/>
<rect x="1026" y="389" fill="#FFFFFF" width="16" height="84"/>
<rect x="1052" y="389" fill="#FFFFFF" width="16" height="84"/>
<rect x="1078" y="389" fill="#FFFFFF" width="16" height="84"/>
<rect x="1104" y="389" fill="#FFFFFF" width="16" height="84"/>
<rect x="1130" y="389" fill="#FFFFFF" width="16" height="84"/>
<rect x="1156" y="389" fill="#FFFFFF" width="16" height="84"/>
<rect x="1182" y="389" fill="#FFFFFF" width="16" height="84"/>
<rect x="1208" y="389" fill="#FFFFFF" width="16" height="84"/>
<rect x="1234" y="389" fill="#FFFFFF" width="16" height="84"/>
<rect x="1260" y="389" fill="#FFFFFF" width="16" height="84"/>
<rect x="1286" y="389" fill="#FFFFFF" width="16" height="84"/>
<rect x="1312" y="389" fill="#FFFFFF" width="16" height="84"/>
<rect x="1338" y="389" fill="#FFFFFF" width="16" height="84"/>
<rect x="12" y="295" fill="#FFFFFF" width="16" height="84"/>
<rect x="38" y="295" fill="#FFFFFF" width="16" height="84"/>
<rect x="64" y="295" fill="#FFFFFF" width="16" height="84"/>
<rect x="90" y="295" fill="#FFFFFF" width="16" height="84"/>
<rect x="116" y="295" fill="#FFFFFF" width="16" height="84"/>
<rect x="142" y="295" fill="#FFFFFF" width="16" height="84"/>
<rect x="168" y="295" fill="#FFFFFF" width="16" height="84"/>
<rect x="194" y="295" fill="#FFFFFF" width="16" height="84"/>
<rect x="220" y="295" fill="#FFFFFF" width="16" height="84"/>
<rect x="246" y="295" fill="#FFFFFF" width="16" height="84"/>
<rect x="272" y="295" fill="#FFFFFF" width="16" height="84"/>
<rect x="298" y="295" fill="#FFFFFF" width="16" height="84"/>
<rect x="324" y="295" fill="#FFFFFF" width="16" height="84"/>
<rect x="350" y="295" fill="#FFFFFF" width="16" height="84"/>
<rect x="376" y="295" fill="#FFFFFF" width="16" height="84"/>
<rect x="402" y="295" fill="#FFFFFF" width="16" height="84"/>
<rect x="428" y="295" fill="#FFFFFF" width="16" height="84"/>
<rect x="454" y="295" fill="#FFFFFF" width="16" height="84"/>
<rect x="480" y="295" fill="#FFFFFF" width="16" height="84"/>
<rect x="506" y="295" fill="#FFFFFF" width="16" height="84"/>
<rect x="532" y="295" fill="#FFFFFF" width="16" height="84"/>
<rect x="558" y="295" fill="#FFFFFF" width="16" height="84"/>
<rect x="584" y="295" fill="#FFFFFF" width="16" height="84"/>
<rect x="610" y="295" fill="#FFFFFF" width="16" height="84"/>
<rect x="636" y="295" fill="#FFFFFF" width="16" height="84"/>
<rect x="662" y="295" fill="#FFFFFF" width="16" height="84"/>
<rect x="688" y="295" fill="#FFFFFF" width="16" height="84"/>
<rect x="714" y="295" fill="#FFFFFF" width="16" height="84"/>
<rect x="740" y="295" fill="#FFFFFF" width="16" height="84"/>
<rect x="766" y="295" fill="#FFFFFF" width="16" height="84"/>
<rect x="792" y="295" fill="#FFFFFF" width="16" height="84"/>
<rect x="818" y="295" fill="#FFFFFF" width="16" height="84"/>
<rect x="844" y="295" fill="#FFFFFF" width="16" height="84"/>
<rect x="870" y="295" fill="#FFFFFF" width="16" height="84"/>
<rect x="896" y="295" fill="#FFFFFF" width="16" height="84"/>
<rect x="922" y="295" fill="#FFFFFF" width="16" height="84"/>
<rect x="948" y="295" fill="#FFFFFF" width="16" height="84"/>
<rect x="974" y="295" fill="#FFFFFF" width="16" height="84"/>
<rect x="1000" y="295" fill="#FFFFFF" width="16" height="84"/>
<rect x="1026" y="295" fill="#FFFFFF" width="16" height="84"/>
<rect x="1052" y="295" fill="#FFFFFF" width="16" height="84"/>
<rect x="1078" y="295" fill="#FFFFFF" width="16" height="84"/>
<rect x="1104" y="295" fill="#FFFFFF" width="16" height="84"/>
<rect x="1130" y="295" fill="#FFFFFF" width="16" height="84"/>
<rect x="1156" y="295" fill="#FFFFFF" width="16" height="84"/>
<rect x="1182" y="295" fill="#FFFFFF" width="16" height="84"/>
<rect x="1208" y="295" fill="#FFFFFF" width="16" height="84"/>
<rect x="1234" y="295" fill="#FFFFFF" width="16" height="84"/>
<rect x="1260" y="295" fill="#FFFFFF" width="16" height="84"/>
<rect x="1286" y="295" fill="#FFFFFF" width="16" height="84"/>
<rect x="1312" y="295" fill="#FFFFFF" width="16" height="84"/>
<rect x="1338" y="295" fill="#FFFFFF" width="16" height="84"/>
<rect x="12" y="201" fill="#FFFFFF" width="16" height="84"/>
<rect x="38" y="201" fill="#FFFFFF" width="16" height="84"/>
<rect x="64" y="201" fill="#FFFFFF" width="16" height="84"/>
<rect x="90" y="201" fill="#FFFFFF" width="16" height="84"/>
<rect x="116" y="201" fill="#FFFFFF" width="16" height="84"/>
<rect x="142" y="201" fill="#FFFFFF" width="16" height="84"/>
<rect x="168" y="201" fill="#FFFFFF" width="16" height="84"/>
<rect x="194" y="201" fill="#FFFFFF" width="16" height="84"/>
<rect x="220" y="201" fill="#FFFFFF" width="16" height="84"/>
<rect x="246" y="201" fill="#FFFFFF" width="16" height="84"/>
<rect x="272" y="201" fill="#FFFFFF" width="16" height="84"/>
<rect x="298" y="201" fill="#FFFFFF" width="16" height="84"/>
<rect x="324" y="201" fill="#FFFFFF" width="16" height="84"/>
<rect x="350" y="201" fill="#FFFFFF" width="16" height="84"/>
<rect x="376" y="201" fill="#FFFFFF" width="16" height="84"/>
<rect x="402" y="201" fill="#FFFFFF" width="16" height="84"/>
<rect x="428" y="201" fill="#FFFFFF" width="16" height="84"/>
<rect x="454" y="201" fill="#FFFFFF" width="16" height="84"/>
<rect x="480" y="201" fill="#FFFFFF" width="16" height="84"/>
<rect x="506" y="201" fill="#FFFFFF" width="16" height="84"/>
<rect x="532" y="201" fill="#FFFFFF" width="16" height="84"/>
<rect x="558" y="201" fill="#FFFFFF" width="16" height="84"/>
<rect x="584" y="201" fill="#FFFFFF" width="16" height="84"/>
<rect x="610" y="201" fill="#FFFFFF" width="16" height="84"/>
<rect x="636" y="201" fill="#FFFFFF" width="16" height="84"/>
<rect x="662" y="201" fill="#FFFFFF" width="16" height="84"/>
<rect x="688" y="201" fill="#FFFFFF" width="16" height="84"/>
<rect x="714" y="201" fill="#FFFFFF" width="16" height="84"/>
<rect x="740" y="201" fill="#FFFFFF" width="16" height="84"/>
<rect x="766" y="201" fill="#FFFFFF" width="16" height="84"/>
<rect x="792" y="201" fill="#FFFFFF" width="16" height="84"/>
<rect x="818" y="201" fill="#FFFFFF" width="16" height="84"/>
<rect x="844" y="201" fill="#FFFFFF" width="16" height="84"/>
<rect x="870" y="201" fill="#FFFFFF" width="16" height="84"/>
<rect x="896" y="201" fill="#FFFFFF" width="16" height="84"/>
<rect x="922" y="201" fill="#FFFFFF" width="16" height="84"/>
<rect x="948" y="201" fill="#FFFFFF" width="16" height="84"/>
<rect x="974" y="201" fill="#FFFFFF" width="16" height="84"/>
<rect x="1000" y="201" fill="#FFFFFF" width="16" height="84"/>
<rect x="1026" y="201" fill="#FFFFFF" width="16" height="84"/>
<rect x="1052" y="201" fill="#FFFFFF" width="16" height="84"/>
<rect x="1078" y="201" fill="#FFFFFF" width="16" height="84"/>
<rect x="1104" y="201" fill="#FFFFFF" width="16" height="84"/>
<rect x="1130" y="201" fill="#FFFFFF" width="16" height="84"/>
<rect x="1156" y="201" fill="#FFFFFF" width="16" height="84"/>
<rect x="1182" y="201" fill="#FFFFFF" width="16" height="84"/>
<rect x="1208" y="201" fill="#FFFFFF" width="16" height="84"/>
<rect x="1234" y="201" fill="#FFFFFF" width="16" height="84"/>
<rect x="1260" y="201" fill="#FFFFFF" width="16" height="84"/>
<rect x="1286" y="201" fill="#FFFFFF" width="16" height="84"/>
<rect x="1312" y="201" fill="#FFFFFF" width="16" height="84"/>
<rect x="1338" y="201" fill="#FFFFFF" width="16" height="84"/>
<rect x="12" y="107" fill="#FFFFFF" width="16" height="84"/>
<rect x="38" y="107" fill="#FFFFFF" width="16" height="84"/>
<rect x="64" y="107" fill="#FFFFFF" width="16" height="84"/>
<rect x="90" y="107" fill="#FFFFFF" width="16" height="84"/>
<rect x="116" y="107" fill="#FFFFFF" width="16" height="84"/>
<rect x="142" y="107" fill="#FFFFFF" width="16" height="84"/>
<rect x="168" y="107" fill="#FFFFFF" width="16" height="84"/>
<rect x="194" y="107" fill="#FFFFFF" width="16" height="84"/>
<rect x="220" y="107" fill="#FFFFFF" width="16" height="84"/>
<rect x="246" y="107" fill="#FFFFFF" width="16" height="84"/>
<rect x="272" y="107" fill="#FFFFFF" width="16" height="84"/>
<rect x="298" y="107" fill="#FFFFFF" width="16" height="84"/>
<rect x="324" y="107" fill="#FFFFFF" width="16" height="84"/>
<rect x="350" y="107" fill="#FFFFFF" width="16" height="84"/>
<rect x="376" y="107" fill="#FFFFFF" width="16" height="84"/>
<rect x="402" y="107" fill="#FFFFFF" width="16" height="84"/>
<rect x="428" y="107" fill="#FFFFFF" width="16" height="84"/>
<rect x="454" y="107" fill="#FFFFFF" width="16" height="84"/>
<rect x="480" y="107" fill="#FFFFFF" width="16" height="84"/>
<rect x="506" y="107" fill="#FFFFFF" width="16" height="84"/>
<rect x="532" y="107" fill="#FFFFFF" width="16" height="84"/>
<rect x="558" y="107" fill="#FFFFFF" width="16" height="84"/>
<rect x="584" y="107" fill="#FFFFFF" width="16" height="84"/>
<rect x="610" y="107" fill="#FFFFFF" width="16" height="84"/>
<rect x="636" y="107" fill="#FFFFFF" width="16" height="84"/>
<rect x="662" y="107" fill="#FFFFFF" width="16" height="84"/>
<rect x="688" y="107" fill="#FFFFFF" width="16" height="84"/>
<rect x="714" y="107" fill="#FFFFFF" width="16" height="84"/>
<rect x="740" y="107" fill="#FFFFFF" width="16" height="84"/>
<rect x="766" y="107" fill="#FFFFFF" width="16" height="84"/>
<rect x="792" y="107" fill="#FFFFFF" width="16" height="84"/>
<rect x="818" y="107" fill="#FFFFFF" width="16" height="84"/>
<rect x="844" y="107" fill="#FFFFFF" width="16" height="84"/>
<rect x="870" y="107" fill="#FFFFFF" width="16" height="84"/>
<rect x="896" y="107" fill="#FFFFFF" width="16" height="84"/>
<rect x="922" y="107" fill="#FFFFFF" width="16" height="84"/>
<rect x="948" y="107" fill="#FFFFFF" width="16" height="84"/>
<rect x="974" y="107" fill="#FFFFFF" width="16" height="84"/>
<rect x="1000" y="107" fill="#FFFFFF" width="16" height="84"/>
<rect x="1026" y="107" fill="#FFFFFF" width="16" height="84"/>
<rect x="1052" y="107" fill="#FFFFFF" width="16" height="84"/>
<rect x="1078" y="107" fill="#FFFFFF" width="16" height="84"/>
<rect x="1104" y="107" fill="#FFFFFF" width="16" height="84"/>
<rect x="1130" y="107" fill="#FFFFFF" width="16" height="84"/>
<rect x="1156" y="107" fill="#FFFFFF" width="16" height="84"/>
<rect x="1182" y="107" fill="#FFFFFF" width="16" height="84"/>
<rect x="1208" y="107" fill="#FFFFFF" width="16" height="84"/>
<rect x="1234" y="107" fill="#FFFFFF" width="16" height="84"/>
<rect x="1260" y="107" fill="#FFFFFF" width="16" height="84"/>
<rect x="1286" y="107" fill="#FFFFFF" width="16" height="84"/>
<rect x="1312" y="107" fill="#FFFFFF" width="16" height="84"/>
<rect x="1338" y="107" fill="#FFFFFF" width="16" height="84"/>
<rect x="12" y="13" fill="#FFFFFF" width="16" height="84"/>
<rect x="38" y="13" fill="#FFFFFF" width="16" height="84"/>
<rect x="64" y="13" fill="#FFFFFF" width="16" height="84"/>
<rect x="90" y="13" fill="#FFFFFF" width="16" height="84"/>
<rect x="116" y="13" fill="#FFFFFF" width="16" height="84"/>
<rect x="142" y="13" fill="#FFFFFF" width="16" height="84"/>
<rect x="168" y="13" fill="#FFFFFF" width="16" height="84"/>
<rect x="194" y="13" fill="#FFFFFF" width="16" height="84"/>
<rect x="220" y="13" fill="#FFFFFF" width="16" height="84"/>
<rect x="246" y="13" fill="#FFFFFF" width="16" height="84"/>
<rect x="272" y="13" fill="#FFFFFF" width="16" height="84"/>
<rect x="298" y="13" fill="#FFFFFF" width="16" height="84"/>
<rect x="324" y="13" fill="#FFFFFF" width="16" height="84"/>
<rect x="350" y="13" fill="#FFFFFF" width="16" height="84"/>
<rect x="376" y="13" fill="#FFFFFF" width="16" height="84"/>
<rect x="402" y="13" fill="#FFFFFF" width="16" height="84"/>
<rect x="428" y="13" fill="#FFFFFF" width="16" height="84"/>
<rect x="454" y="13" fill="#FFFFFF" width="16" height="84"/>
<rect x="480" y="13" fill="#FFFFFF" width="16" height="84"/>
<rect x="506" y="13" fill="#FFFFFF" width="16" height="84"/>
<rect x="532" y="13" fill="#FFFFFF" width="16" height="84"/>
<rect x="558" y="13" fill="#FFFFFF" width="16" height="84"/>
<rect x="584" y="13" fill="#FFFFFF" width="16" height="84"/>
<rect x="610" y="13" fill="#FFFFFF" width="16" height="84"/>
<rect x="636" y="13" fill="#FFFFFF" width="16" height="84"/>
<rect x="662" y="13" fill="#FFFFFF" width="16" height="84"/>
<rect x="688" y="13" fill="#FFFFFF" width="16" height="84"/>
<rect x="714" y="13" fill="#FFFFFF" width="16" height="84"/>
<rect x="740" y="13" fill="#FFFFFF" width="16" height="84"/>
<rect x="766" y="13" fill="#FFFFFF" width="16" height="84"/>
<rect x="792" y="13" fill="#FFFFFF" width="16" height="84"/>
<rect x="818" y="13" fill="#FFFFFF" width="16" height="84"/>
<rect x="844" y="13" fill="#FFFFFF" width="16" height="84"/>
<rect x="870" y="13" fill="#FFFFFF" width="16" height="84"/>
<rect x="896" y="13" fill="#FFFFFF" width="16" height="84"/>
<rect x="922" y="13" fill="#FFFFFF" width="16" height="84"/>
<rect x="948" y="13" fill="#FFFFFF" width="16" height="84"/>
<rect x="974" y="13" fill="#FFFFFF" width="16" height="84"/>
<rect x="1000" y="13" fill="#FFFFFF" width="16" height="84"/>
<rect x="1026" y="13" fill="#FFFFFF" width="16" height="84"/>
<rect x="1052" y="13" fill="#FFFFFF" width="16" height="84"/>
<rect x="1078" y="13" fill="#FFFFFF" width="16" height="84"/>
<rect x="1104" y="13" fill="#FFFFFF" width="16" height="84"/>
<rect x="1130" y="13" fill="#FFFFFF" width="16" height="84"/>
<rect x="1156" y="13" fill="#FFFFFF" width="16" height="84"/>
<rect x="1182" y="13" fill="#FFFFFF" width="16" height="84"/>
<rect x="1208" y="13" fill="#FFFFFF" width="16" height="84"/>
<rect x="1234" y="13" fill="#FFFFFF" width="16" height="84"/>
<rect x="1260" y="13" fill="#FFFFFF" width="16" height="84"/>
<rect x="1286" y="13" fill="#FFFFFF" width="16" height="84"/>
<rect x="1312" y="13" fill="#FFFFFF" width="16" height="84"/>
<rect x="1338" y="13" fill="#FFFFFF" width="16" height="84"/>
</svg>
