<?xml version="1.0" encoding="utf-8"?>
<!DOCTYPE svg PUBLIC "-//W3C//DTD SVG 1.1//EN" "http://www.w3.org/Graphics/SVG/1.1/DTD/svg11.dtd" [ <!ENTITY ns_flows "http://ns.adobe.com/Flows/1.0/"> ]>
<svg version="1.1" xmlns="http://www.w3.org/2000/svg" xmlns:xlink="http://www.w3.org/1999/xlink" xmlns:a="http://ns.adobe.com/AdobeSVGViewerExtensions/3.0/" x="0px" y="0px" width="60px" height="14px" viewBox="0 0 60 14" overflow="visible" enable-background="new 0 0 60 14" xml:space="preserve">
<defs></defs>
<path fill="#FFFFFF" d="M0,2.4c0.1,0,0.1,0,0.2,0c0.2,0,0.4,0,0.8,0c0.2,0,0.3,0,0.4,0c0.1,0,0.3,0,0.7,0l1.2-0.1c0.3,0,0.7,0,1.1,0
c0.8,0,1.4,0.1,1.8,0.3c0.4,0.2,0.8,0.5,1,1C7.5,4.1,7.6,4.5,7.6,5c0,0.8-0.3,1.4-0.8,2C6.3,7.5,5.6,7.7,4.7,7.7
c-0.3,0-0.5,0-0.6-0.1C3.9,7.6,3.7,7.5,3.5,7.4C3.4,7.3,3.4,7.2,3.3,7.2c0,0,0-0.1,0.1-0.1c0.1,0,0.1,0,0.2,0C3.8,7.2,4,7.2,4.3,7.2
C4.6,7.2,5,7.1,5.3,7c0.3-0.2,0.6-0.5,0.8-0.8c0.2-0.3,0.3-0.7,0.3-1.1c0-0.4-0.1-0.7-0.3-1.1C5.9,3.6,5.7,3.3,5.4,3.1
C5.2,3,4.9,2.9,4.6,2.8C4.2,2.7,4,2.7,3.8,2.7c-0.6,0-0.9,0-1.1,0.1l0,0.1l0,0.8l0,0.1c0,0.1,0,0.3,0,0.6c0,1,0,1.6,0,1.8v0.4
L2.9,10c0,0,0,0.1,0,0.3c0,0.1,0,0.2,0,0.3c0,0.2,0,0.4,0.1,0.5c0.1,0,0.5,0.1,1,0.2c0.3,0.1,0.4,0.1,0.4,0.1c0,0,0.1,0,0.1,0.1
c0,0.1,0,0.1-0.1,0.1c0,0-0.1,0-0.2,0c-0.1,0-0.2,0-0.4,0c-0.4,0-0.7-0.1-1-0.1l-1.3,0.1l-0.8,0c0,0-0.2,0-0.4,0l0-0.2l0.9-0.2
c0.2,0,0.2-0.1,0.3-0.1c0-0.1,0.1-0.2,0.1-0.4c0,0,0-0.1,0-0.3c0-0.1,0-0.2,0-0.4c0-0.6,0-1.8-0.1-3.6c0-0.9,0-1.7,0-2.6V3.7
c0-0.3-0.1-0.6-0.2-0.7C1.2,2.9,0.7,2.8,0,2.7c0-0.1,0-0.1,0-0.1C0,2.5,0,2.5,0,2.4"/>
<path fill="#FFFFFF" d="M8.6,7.7l0-0.2c0.3-0.1,0.5-0.2,0.5-0.2C9.3,7.2,9.5,7,9.7,6.9c0.2-0.2,0.4-0.4,0.5-0.6c0.1,0,0.1,0,0.1,0
l0.1,0c0,0.2,0,0.4,0,0.5c0,0,0,0.1,0,0.3v0.4l0,2.2l0,2.4c0,0.2,0,0.3,0.1,0.4c0.1,0.1,0.3,0.2,0.6,0.3c0.2,0.1,0.4,0.1,0.5,0.1
c0,0,0,0.1,0,0.1c0,0,0,0.1,0,0.1c-0.2,0-0.5,0-0.8,0c-0.4,0-0.7-0.1-0.9-0.1c-0.1,0-0.5,0-1.2,0c-0.2,0-0.3,0-0.4,0
c0,0-0.1,0-0.1,0c0,0,0-0.1,0-0.1c0-0.1,0-0.1,0.1-0.2c0,0,0.3-0.1,0.8-0.2c0.2,0,0.3-0.1,0.3-0.2c0.1-0.1,0.1-0.3,0.1-0.5
c0-0.4,0-1.5,0-3.3c0-0.4,0-0.6,0-0.7c0-0.1-0.1-0.1-0.2-0.2C9.2,7.8,9,7.7,8.6,7.7 M9.2,3.6c0-0.2,0.1-0.3,0.2-0.4
C9.6,3.1,9.7,3,9.9,3c0.2,0,0.4,0.1,0.5,0.2c0.1,0.1,0.2,0.3,0.2,0.4c0,0.2-0.1,0.6-0.2,0.8c-0.1,0.1-0.3-0.1-0.5-0.1
c-0.2,0-0.3-0.1-0.5-0.2C9.3,4,9.2,3.8,9.2,3.6"/>
<path fill="#FFFFFF" d="M11.6,6c0-0.1,0-0.1,0-0.2l0-0.1c0.1,0,0.2,0,0.3,0l0.3,0c0.4,0,0.7,0,0.8,0c0.4,0,0.7,0,1.1-0.1
c0.2,0,0.4,0,0.4,0l0.2,0c0,0.1,0.1,0.1,0.1,0.2c0,0,0,0.1,0,0.1l-0.1,0C14.2,5.9,13.9,6,13.9,6c0,0-0.1,0.1-0.1,0.1
c0,0.1,0.1,0.2,0.2,0.4c0.6,0.8,1.1,1.2,1.3,1.4c0.5-0.7,0.7-1.1,0.8-1.3c0.1-0.2,0.1-0.3,0.1-0.4c0-0.1-0.1-0.2-0.2-0.3
c-0.1-0.1-0.3-0.1-0.7-0.2c0-0.1-0.1-0.1-0.1-0.2l0-0.1l0.2,0c0.1,0,0.1,0,0.3,0c0.2,0,0.4,0,0.7,0c0.1,0,0.3,0,0.6,0
c0.3,0,0.5,0,0.6,0l0.4,0c0.1,0,0.1,0.1,0.1,0.1c0,0,0,0.1,0,0.1c-0.1,0-0.2,0-0.3,0.1c-0.3,0.1-0.5,0.2-0.8,0.3
c-0.2,0.1-0.4,0.3-0.6,0.6l-1,1.5l1.2,1.3c0.5,0.7,0.9,1.1,1,1.2s0.3,0.2,0.4,0.3c0.1,0.1,0.3,0.1,0.6,0.2c0,0.1,0,0.1,0,0.2
c0,0,0,0.1,0,0.1c-0.1,0-0.6,0-1.4,0c-0.1,0-0.3,0-0.7,0.1c-0.1,0-0.3,0-0.4,0c-0.1,0-0.3,0-0.4,0l0-0.2c0.1,0,0.2,0,0.3-0.1
c0.3-0.1,0.4-0.1,0.6-0.2c0.1-0.1,0.1-0.1,0.1-0.2c0-0.1-0.4-0.6-1.1-1.4L15,9c-0.2,0.2-0.4,0.5-0.7,1c-0.1,0.2-0.3,0.4-0.3,0.5
c-0.2,0.2-0.2,0.4-0.2,0.5c0,0,0,0.1,0.1,0.1c0.1,0,0.2,0.1,0.5,0.1c0.2,0,0.3,0.1,0.4,0.1c0,0.1,0,0.1,0,0.2c0,0,0,0.1,0,0.2
c-0.4,0-0.8,0-1.2,0c-0.5,0-0.8,0-1,0.1c-0.2,0-0.3,0-0.4,0c-0.1,0-0.2,0-0.3,0c0-0.1,0-0.1,0-0.2l0-0.1c0.1,0,0.2-0.1,0.3-0.1
c0.3-0.1,0.6-0.2,0.9-0.4c0.3-0.2,0.8-1,1.7-2.3l-2.3-2.4c0,0-0.1-0.1-0.1-0.1c-0.1,0-0.2-0.1-0.3-0.1C11.8,6.1,11.7,6,11.6,6"/>
<path fill="#FFFFFF" d="M24.4,8.2l-3.1,0l-0.6,0c-0.2,0-0.5,0-0.7,0c0,0.2-0.1,0.3-0.1,0.3l0,0.1v0.1l0,0.4c0,0.3,0.1,0.7,0.3,1.2
s0.5,0.8,0.9,1s0.8,0.4,1.4,0.4c0.3,0,0.5-0.1,0.7-0.1c0.2-0.1,0.4-0.2,0.7-0.4l0.6-0.5l0,0.3c0,0,0,0.1,0,0.1
c-0.2,0.3-0.5,0.6-0.9,0.8c-0.4,0.2-0.7,0.4-1.1,0.5c-0.2,0-0.5,0.1-0.9,0.1c-0.4,0-0.7-0.1-1.1-0.2c-0.5-0.2-0.9-0.6-1.2-1.1
c-0.3-0.5-0.5-1.1-0.5-1.8c0-0.2,0-0.5,0.1-0.9c0.1-0.4,0.2-0.7,0.5-1.1c0.1-0.3,0.3-0.5,0.5-0.7c0.3-0.2,0.6-0.4,0.8-0.5
C21.2,6,21.6,6,22,6c0.5,0,0.9,0.1,1.2,0.3c0.4,0.2,0.7,0.5,0.9,0.9c0.2,0.4,0.3,0.7,0.3,1V8.2 M20.1,8h0.4c0.3,0,1,0,2.4-0.1
c0.2,0,0.3,0,0.4-0.1c0.1-0.1,0.1-0.2,0.1-0.3c0-0.2-0.1-0.3-0.2-0.5c-0.1-0.2-0.3-0.4-0.5-0.5c-0.2-0.1-0.5-0.2-0.7-0.2
c-0.6,0-1.1,0.2-1.4,0.7C20.3,7.3,20.1,7.7,20.1,8"/>
<path fill="#FFFFFF" d="M25,2.7V2.6c0.1,0,0.3-0.1,0.5-0.1c0.3-0.1,0.6-0.2,1.2-0.4H27c0,0.2,0,0.4,0,0.4c0,4.2,0,6.8,0,7.6
c0,0.5,0,0.7,0,0.8c0,0.6,0,0.9,0.1,1c0.1,0.1,0.3,0.2,0.6,0.2c0.3,0,0.5,0.1,0.6,0.1c0,0,0.1,0.1,0.1,0.1c0,0.1,0,0.1,0,0.1
c0,0-0.1,0-0.1,0c0,0-0.3,0-0.8,0l-1,0l-1.3,0.1c-0.1,0-0.1,0-0.2,0c0,0,0-0.1,0-0.1c0-0.1,0-0.1,0-0.1c0,0,0.2-0.1,0.6-0.1
c0.3-0.1,0.5-0.1,0.6-0.1c0,0,0.1-0.1,0.1-0.3c0-0.2,0-0.7,0-1.6l0-1.8l0-1.8l0-1.8l0-0.9c0-0.2,0-0.3-0.1-0.4
c-0.1-0.1-0.2-0.2-0.4-0.2C25.3,2.9,25.1,2.8,25,2.7"/>
<path fill="#FFFFFF" d="M38.8,4.2l0.1,1.1c0,0.3,0,0.6,0,0.7l-0.2,0c-0.3-0.7-0.7-1.3-1.2-1.6c-0.5-0.4-1.1-0.5-1.7-0.5
c-0.8,0-1.5,0.1-2,0.3c-0.7,0.3-1.3,0.8-1.7,1.5c-0.5,0.7-0.7,1.6-0.7,2.6c0,0.6,0.1,1.1,0.3,1.6c0.2,0.5,0.4,0.9,0.7,1.3
c0.3,0.4,0.7,0.8,1.1,1c0.3,0.2,0.6,0.3,1,0.4c0.2,0.1,0.6,0.1,1,0.1c0.3,0,0.6,0,0.9-0.1s0.6-0.2,0.8-0.3c0.2-0.1,0.3-0.3,0.4-0.5
c0.1-0.2,0.1-0.5,0.1-1c0-0.8-0.1-1.3-0.2-1.4c-0.1-0.1-0.5-0.2-1-0.3l-0.3,0l-0.2,0c0,0-0.1,0-0.1,0l-0.1-0.2c0,0,0-0.1,0-0.1
c0.2,0,0.8-0.1,1.6-0.1c0.2,0,0.5,0,0.9,0l0.7,0l0.7,0c0.1,0,0.3,0,0.5,0c0,0,0.1,0,0.1,0c0,0,0,0,0,0.1c0,0.1,0,0.1,0,0.2
c-0.2,0-0.4,0.1-0.5,0.1l-0.5,0c-0.2,0-0.3,0.1-0.4,0.2C39,9.3,39,9.5,39,9.8l0,0.9c0,0.6,0,1.1-0.1,1.2c0,0.1-0.1,0.2-0.2,0.3
c-0.1,0.1-0.3,0.2-0.6,0.3c-0.4,0.2-0.8,0.3-1.1,0.3C36.4,13,35.8,13,35.2,13c-0.9,0-1.7-0.1-2.3-0.4c-0.6-0.2-1.1-0.6-1.6-1
c-0.4-0.4-0.7-0.9-0.9-1.3c-0.3-0.6-0.4-1.3-0.4-2c0-0.8,0.2-1.7,0.7-2.4c0.4-0.8,1.1-1.4,2.1-1.9c0.7-0.4,1.6-0.5,2.8-0.5
c0.8,0,1.5,0.1,2,0.2C38.1,3.8,38.5,4,38.8,4.2"/>
<path fill="#FFFFFF" d="M40.7,11.2l0-0.1c0,0,0-0.1,0.1-0.2l0.5-0.1l0.7-0.1c0.1,0,0.1-0.1,0.1-0.1c0-0.1,0.1-0.3,0.1-0.6
c0.2-1.7,0.2-2.8,0.2-3c0-0.3,0-0.4-0.1-0.5c-0.1-0.1-0.2-0.1-0.5-0.2c-0.2,0-0.3-0.1-0.4-0.1L41.3,6c0.6-0.2,0.9-0.3,1.1-0.5
C42.7,5.3,43,5,43.2,4.6l0.3,0c0,0.3,0,0.8-0.1,1.7l0,0.1c0,0,0,0.1,0,0.1c0.2-0.3,0.5-0.6,0.8-0.9l0.2-0.2c0.1-0.1,0.2-0.1,0.2-0.2
c0.4-0.2,0.7-0.3,0.8-0.3c0.2,0,0.4,0.1,0.5,0.3c0.1,0.2,0.2,0.4,0.2,0.6c0,0.2-0.1,0.3-0.2,0.4c-0.1,0.1-0.3,0.2-0.5,0.2
c-0.1,0-0.2-0.1-0.5-0.2c-0.2-0.1-0.4-0.2-0.5-0.2c-0.1,0-0.2,0-0.3,0c-0.2,0.1-0.3,0.3-0.6,0.6c-0.2,0.2-0.3,0.5-0.3,0.7l-0.1,1.3
l-0.1,1.5c0,0.2,0,0.3,0,0.3c0,0,0.1,0.1,0.1,0.1c0.6,0.1,0.9,0.2,1,0.2c0.1,0,0.1,0,0.2,0c0.2,0,0.4,0.1,0.5,0.1
c0,0,0.1,0.1,0.1,0.1c0,0,0,0.1-0.1,0.1C43.4,11.3,42.1,11.2,40.7,11.2"/>
<path fill="#FFFFFF" d="M46.7,4.6l0-0.2c0.3-0.1,0.5-0.2,0.5-0.2c0.2-0.1,0.4-0.2,0.6-0.4c0.2-0.2,0.4-0.4,0.5-0.6
c0.1,0,0.1,0,0.1,0l0.1,0c0,0.2,0,0.4,0,0.5c0,0,0,0.1,0,0.3v0.4l0,2.2l0,2.4c0,0.2,0,0.3,0.1,0.4c0.1,0.1,0.3,0.2,0.6,0.3
c0.2,0.1,0.4,0.1,0.5,0.1c0,0,0,0.1,0,0.1c0,0,0,0.1,0,0.1c-0.2,0-0.5,0-0.8,0c-0.4,0-0.7-0.1-0.9-0.1c-0.1,0-0.5,0-1.2,0
c-0.2,0-0.3,0-0.4,0c0,0-0.1,0-0.1,0c0,0,0-0.1,0-0.1c0-0.1,0-0.1,0.1-0.2c0,0,0.3-0.1,0.8-0.2c0.2,0,0.3-0.1,0.3-0.2
c0.1-0.1,0.1-0.3,0.1-0.5c0-0.4,0-1.5,0-3.3c0-0.4,0-0.6,0-0.7c0-0.1-0.1-0.1-0.2-0.2C47.3,4.8,47,4.7,46.7,4.6 M47.3,0.6
c0-0.2,0.1-0.3,0.2-0.4C47.7,0.1,47.8,0,48,0c0.2,0,0.4,0.1,0.5,0.2c0.1,0.1,0.2,0.3,0.2,0.4c0,0.2,0,0.8-0.1,1S48.2,1.3,48,1.3
c-0.2,0-0.4-0.1-0.5-0.2C47.4,1,47.3,0.8,47.3,0.6"/>
<path fill="#FFFFFF" d="M55.4,7.1l0-0.2l0-0.9l0-1.7c0-0.5-0.1-0.8-0.2-0.9c-0.1-0.1-0.4-0.3-0.9-0.4c0,0-0.1,0-0.2,0V2.9
c0,0,0-0.1,0-0.2c0.7-0.1,1.3-0.2,1.8-0.4l0.4,0c0,0.3,0,0.7,0,1.1l0,2.9l0.1,3.3l0,1.7c0,0.4,0,0.6,0.1,0.6
c0.1,0.1,0.3,0.2,0.7,0.2c0.1,0,0.2,0,0.3,0v0.1c0,0,0,0.1,0,0.1c-0.2,0-0.3,0.1-0.5,0.1l-1.1,0.2c-0.2,0-0.3,0-0.4,0v-0.7
c-0.1,0-0.2,0.1-0.4,0.2c-0.8,0.3-1.5,0.5-2.2,0.5c-0.4,0-0.8-0.1-1.2-0.4c-0.4-0.3-0.7-0.6-0.9-1.1c-0.2-0.5-0.3-0.9-0.3-1.4
c0-0.4,0.1-0.8,0.2-1.2c0.1-0.4,0.3-0.7,0.6-1c0.2-0.2,0.4-0.3,0.6-0.5s0.5-0.3,0.7-0.3c0.4-0.1,0.7-0.2,0.9-0.2
c0.7,0,1.2,0.1,1.7,0.3C55.2,7,55.3,7,55.4,7.1 M55.4,11.7c0-0.3,0-1,0-2.1c0-0.9,0-1.4-0.1-1.7c-0.1-0.2-0.3-0.5-0.6-0.7
C54.4,7.1,54,7,53.6,7c-0.6,0-1.1,0.2-1.5,0.7c-0.4,0.4-0.6,1.1-0.6,2c0,0.8,0.2,1.4,0.6,1.8c0.4,0.5,1,0.7,1.6,0.7
c0.4,0,0.7-0.1,1-0.2C55.1,11.9,55.3,11.8,55.4,11.7"/>
<path fill="#FFFFFF" d="M60,12.2c0,0.4-0.4,1-0.8,1c-0.4,0-0.6-0.6-0.6-1c0-0.4,0.3-0.7,0.7-0.7C59.7,11.5,60,11.8,60,12.2"/>
<rect fill="none" width="60" height="14"/>
</svg>
